<?xml version="1.0" encoding="UTF-8" standalone="no"?>
<!DOCTYPE svg PUBLIC "-//W3C//DTD SVG 1.1//EN" "http://www.w3.org/Graphics/SVG/1.1/DTD/svg11.dtd">
<svg width="100%" height="100%" viewBox="0 0 155 167" version="1.1" xmlns="http://www.w3.org/2000/svg" xmlns:xlink="http://www.w3.org/1999/xlink" xml:space="preserve" xmlns:serif="http://www.serif.com/" style="fill-rule:evenodd;clip-rule:evenodd;stroke-linecap:round;stroke-linejoin:round;stroke-miterlimit:1.5;">
    <g transform="matrix(1,0,0,1,-1602.97,-1297.91)">
        <g transform="matrix(3.95957,0,0,1.69453,1216.62,1084.93)">
            <g transform="matrix(0.252553,0,0,0.590134,-307.261,-640.257)">
                <path d="M1718.99,1457.17C1766.02,1448.13 1760.77,1417.6 1748.09,1403.82C1740.44,1395.5 1679.94,1348.77 1647.6,1424.91C1652.26,1401.07 1652.19,1382.11 1650.6,1364.71C1650.6,1364.71 1643.6,1347.72 1662.07,1347.31C1673.95,1347.04 1671.53,1336.54 1680.68,1333.41C1689.83,1330.29 1689.79,1317 1682.69,1316.29C1682.69,1316.29 1689.13,1306.63 1670.65,1303.3C1652.17,1299.97 1649.27,1292.98 1639.38,1309.14C1629.49,1325.3 1626.71,1319.93 1627.41,1339.61C1628.11,1359.28 1605.18,1379.37 1605.4,1408.59C1605.61,1437.81 1597.01,1460.38 1619.68,1457.59C1642.35,1454.81 1663.48,1465.18 1683.38,1462.97C1703.28,1460.76 1682.14,1464.25 1718.99,1457.17Z" style="fill:rgb(254,229,99);stroke:black;stroke-width:2px;"/>
            </g>
            <g transform="matrix(0.600689,-0.107631,0.0460616,1.40362,-145.143,-1.4747)">
                <path d="M432.623,173.658C432.623,173.658 432.848,175.38 434.037,175.318C435.226,175.257 435.164,173.494 435.164,173.494L432.623,173.658Z" style="stroke:black;stroke-width:0.84px;"/>
            </g>
            <g transform="matrix(0.252553,0,0,0.590134,-307.321,-641.305)">
                <path d="M1661.29,1317.14C1661.29,1317.14 1663.39,1317.56 1662.47,1320.3" style="fill:none;stroke:black;stroke-width:2px;"/>
            </g>
            <g transform="matrix(0.252553,0,0,0.590134,-307.321,-641.305)">
                <path d="M1654.51,1315.99C1654.19,1315.57 1662.1,1319.44 1668.61,1313.88" style="fill:none;stroke:black;stroke-width:2px;"/>
            </g>
            <g transform="matrix(0.252553,0,0,0.590134,-307.261,-640.257)">
                <path d="M1652.81,1324.54C1652.81,1324.54 1657.2,1317.59 1652.22,1310.4" style="fill:none;stroke:black;stroke-width:2px;"/>
            </g>
            <g transform="matrix(0.252553,0,0,0.590134,-307.261,-640.257)">
                <path d="M1682.6,1316.37L1667.43,1323.68C1661.91,1326.96 1655.82,1325.96 1649.54,1323.51" style="fill:none;stroke:black;stroke-width:2px;"/>
            </g>
            <g transform="matrix(0.252553,0,0,0.590134,-307.261,-640.257)">
                <path d="M1650.12,1353.96C1650.12,1353.96 1644.13,1350.38 1640.37,1350.88L1653.01,1349.24C1653.01,1349.24 1650.17,1352.27 1650.12,1353.96Z" style="stroke:black;stroke-width:2px;"/>
            </g>
            <g transform="matrix(0.252553,0,0,0.590134,-307.261,-640.257)">
                <path d="M1647.67,1425.02C1640.44,1435.09 1636.37,1435.14 1636.37,1435.14" style="fill:none;stroke:black;stroke-width:2px;"/>
            </g>
            <g transform="matrix(0.252553,0,0,0.590134,-307.261,-640.257)">
                <path d="M1647.76,1424.9C1647.76,1424.9 1646.66,1425.77 1649.87,1429.85" style="fill:none;stroke:black;stroke-width:2px;"/>
            </g>
            <g transform="matrix(0.252553,0,0,0.590134,-307.225,-636.939)">
                <path d="M1666.1,1421.14C1666.18,1422.22 1675.39,1429.69 1688.32,1425.4" style="fill:none;stroke:black;stroke-width:2px;"/>
            </g>
            <g transform="matrix(0.252553,0,0,0.590134,-304.95,-641.29)">
                <path d="M1720.78,1421.52C1720.78,1421.52 1727.02,1420.06 1730.26,1413.59" style="fill:none;stroke:black;stroke-width:2px;"/>
            </g>
            <g transform="matrix(0.252553,0,0,0.590134,-307.261,-640.257)">
                <path d="M1604.48,1432.23C1604.48,1432.23 1607.87,1410.71 1611.73,1405.65" style="fill:none;stroke:black;stroke-width:2px;"/>
            </g>
            <g transform="matrix(0.252553,0,0,0.590134,-311.793,-622.064)">
                <path d="M1690.86,1427.11C1690.86,1427.11 1713.73,1431.81 1724.6,1428.56" style="fill:none;stroke:black;stroke-width:2px;"/>
            </g>
            <g transform="matrix(0.318004,0,0,0.583369,-418,-627.631)">
                <ellipse cx="1688" cy="1398.64" rx="7.544" ry="8.959" style="fill:white;stroke:black;stroke-width:1.77px;"/>
            </g>
            <g transform="matrix(0.318004,0,0,0.583369,-410.644,-629.498)">
                <ellipse cx="1688" cy="1398.64" rx="7.544" ry="8.959" style="fill:white;stroke:black;stroke-width:1.77px;"/>
            </g>
            <g transform="matrix(0.141271,0,0,0.259157,-113.359,-177.277)">
                <ellipse cx="1688" cy="1398.64" rx="7.544" ry="8.959" style="stroke:black;stroke-width:3.98px;"/>
            </g>
            <g transform="matrix(0.0699604,0,0,0.12834,8.12264,7.29728)">
                <ellipse cx="1688" cy="1398.64" rx="7.544" ry="8.959" style="fill:white;"/>
            </g>
            <g transform="matrix(0.141271,0,0,0.259157,-120.843,-175.274)">
                <ellipse cx="1688" cy="1398.64" rx="7.544" ry="8.959" style="stroke:black;stroke-width:3.98px;"/>
            </g>
            <g transform="matrix(0.0699604,0,0,0.12834,0.593139,9.77154)">
                <ellipse cx="1688" cy="1398.64" rx="7.544" ry="8.959" style="fill:white;"/>
            </g>
        </g>
    </g>
</svg>
