<svg width="312" height="199" viewBox="0 0 312 199" fill="none" xmlns="http://www.w3.org/2000/svg">
<mask id="mask0_119_251" style="mask-type:alpha" maskUnits="userSpaceOnUse" x="0" y="0" width="312" height="199">
<rect width="312" height="199" fill="#C4C4C4"/>
</mask>
<g mask="url(#mask0_119_251)">
<path fill-rule="evenodd" clip-rule="evenodd" d="M302.519 41.9592C302.519 41.9592 124.223 191.353 2.61589 139.419L7.77179 151.001C7.77179 151.001 194.809 309.18 311.32 49.1369L302.519 41.9592Z" fill="#FFC81F" stroke="black" stroke-width="2.02673" stroke-miterlimit="1.5" stroke-linecap="round" stroke-linejoin="round"/>
<path d="M308.804 48.3893C308.804 48.3893 137.619 217.744 6.21387 146.227" stroke="black" stroke-width="2.02673" stroke-miterlimit="1.5" stroke-linecap="round" stroke-linejoin="round"/>
<path d="M235.925 85.8454C239.721 89.5363 246.866 88.3452 251.884 83.1848C256.901 78.0244 257.891 70.8489 254.095 67.158C250.299 63.467 243.154 64.6582 238.137 69.8185C233.119 74.9789 232.129 82.1544 235.925 85.8454Z" fill="white" stroke="black" stroke-width="2.02673" stroke-miterlimit="1.5" stroke-linecap="round" stroke-linejoin="round"/>
<path d="M240.859 73.5107C241.551 73.5107 242.113 72.9491 242.113 72.2564C242.113 71.5637 241.551 71.0021 240.859 71.0021C240.166 71.0021 239.604 71.5637 239.604 72.2564C239.604 72.9491 240.166 73.5107 240.859 73.5107Z" fill="#2A2130" stroke="black" stroke-width="2.02673" stroke-miterlimit="1.5" stroke-linecap="round" stroke-linejoin="round"/>
<path d="M248.417 95.1118C252.214 98.8028 259.358 97.6116 264.376 92.4513C269.393 87.2909 270.383 80.1154 266.587 76.4245C262.791 72.7335 255.646 73.9247 250.629 79.085C245.611 84.2454 244.621 91.4209 248.417 95.1118Z" fill="white" stroke="black" stroke-width="2.02673" stroke-miterlimit="1.5" stroke-linecap="round" stroke-linejoin="round"/>
<path d="M253.046 83.341C253.739 83.341 254.301 82.7795 254.301 82.0867C254.301 81.394 253.739 80.8325 253.046 80.8325C252.354 80.8325 251.792 81.394 251.792 82.0867C251.792 82.7795 252.354 83.341 253.046 83.341Z" fill="#2A2130" stroke="black" stroke-width="2.02673" stroke-miterlimit="1.5" stroke-linecap="round" stroke-linejoin="round"/>
<path d="M228.671 102.913C229.364 102.913 229.926 102.351 229.926 101.659C229.926 100.966 229.364 100.404 228.671 100.404C227.979 100.404 227.417 100.966 227.417 101.659C227.417 102.351 227.979 102.913 228.671 102.913Z" fill="#2A2130" stroke="black" stroke-width="2.02673" stroke-miterlimit="1.5" stroke-linecap="round" stroke-linejoin="round"/>
<path d="M79.6436 180.899C79.6436 180.899 171.003 217.87 246.856 135.007" stroke="black" stroke-width="2.02673" stroke-miterlimit="1.5" stroke-linecap="round" stroke-linejoin="round"/>
</g>
</svg>
