<svg width="250" height="233" viewBox="0 0 250 233" fill="none" xmlns="http://www.w3.org/2000/svg">
<mask id="mask0_119_286" style="mask-type:alpha" maskUnits="userSpaceOnUse" x="0" y="0" width="250" height="233">
<path d="M0 0H250V233H0V0Z" fill="#C4C4C4"/>
</mask>
<g mask="url(#mask0_119_286)">
<path d="M63.7121 233.007C97.7948 233.007 125.424 205.377 125.424 171.295C125.424 137.212 97.7948 109.583 63.7121 109.583C29.6295 109.583 2 137.212 2 171.295C2 205.377 29.6295 233.007 63.7121 233.007Z" fill="#5225F4" stroke="black" stroke-width="1.3832" stroke-miterlimit="1.5" stroke-linecap="round" stroke-linejoin="round"/>
<path d="M61.5703 154.06C62.9543 154.06 64.0762 152.938 64.0762 151.554C64.0762 150.17 62.9543 149.048 61.5703 149.048C60.1864 149.048 59.0645 150.17 59.0645 151.554C59.0645 152.938 60.1864 154.06 61.5703 154.06Z" fill="black" stroke="black" stroke-width="1.38498" stroke-miterlimit="1.5" stroke-linecap="round" stroke-linejoin="round"/>
<path d="M76.6202 153.461C78.0041 153.461 79.1261 152.339 79.1261 150.955C79.1261 149.571 78.0041 148.45 76.6202 148.45C75.2362 148.45 74.1143 149.571 74.1143 150.955C74.1143 152.339 75.2362 153.461 76.6202 153.461Z" fill="black" stroke="black" stroke-width="1.38498" stroke-miterlimit="1.5" stroke-linecap="round" stroke-linejoin="round"/>
<path fill-rule="evenodd" clip-rule="evenodd" d="M66.0674 156.665C66.0674 156.665 70.8246 159.432 73.936 156.665H66.0674Z" fill="#5225F4"/>
<path d="M66.0674 156.665C66.0674 156.665 70.8246 159.432 73.936 156.665" stroke="black" stroke-width="1.38498" stroke-miterlimit="1.5" stroke-linecap="round" stroke-linejoin="round"/>
<path d="M144.224 215.49C168.648 239.261 207.718 238.733 231.49 214.309C255.261 189.885 254.733 150.814 230.309 127.043C205.885 103.271 166.814 103.8 143.042 128.224C119.271 152.648 119.8 191.718 144.224 215.49Z" fill="#8AE3F2" stroke="black" stroke-width="1.3832" stroke-miterlimit="1.5" stroke-linecap="round" stroke-linejoin="round"/>
<path d="M197.715 157.414C198.707 158.379 200.293 158.358 201.258 157.366C202.224 156.374 202.202 154.788 201.21 153.823C200.219 152.857 198.632 152.879 197.667 153.871C196.702 154.862 196.723 156.449 197.715 157.414Z" fill="black" stroke="black" stroke-width="1.38498" stroke-miterlimit="1.5" stroke-linecap="round" stroke-linejoin="round"/>
<path d="M208.956 167.472C209.947 168.438 211.534 168.416 212.499 167.424C213.464 166.433 213.443 164.846 212.451 163.881C211.459 162.916 209.873 162.937 208.908 163.929C207.942 164.921 207.964 166.507 208.956 167.472Z" fill="black" stroke="black" stroke-width="1.38498" stroke-miterlimit="1.5" stroke-linecap="round" stroke-linejoin="round"/>
<path d="M199.168 162.41C199.168 162.41 200.648 167.71 204.807 167.898" stroke="black" stroke-width="1.38498" stroke-miterlimit="1.5" stroke-linecap="round" stroke-linejoin="round"/>
<path d="M174.093 101.103C195.101 74.0255 190.18 35.045 163.103 14.0375C136.026 -6.97005 97.0455 -2.04952 76.0379 25.0278C55.0304 52.105 59.9509 91.0855 87.0281 112.093C114.105 133.101 153.085 128.18 174.093 101.103Z" fill="#FFC81F" stroke="black" stroke-width="1.39084" stroke-miterlimit="1.5" stroke-linecap="round" stroke-linejoin="round"/>
<path d="M110.05 54.1616C110.903 53.0621 110.703 51.4792 109.604 50.6262C108.504 49.7732 106.922 49.973 106.068 51.0725C105.215 52.172 105.415 53.7549 106.515 54.6079C107.614 55.4609 109.197 55.2611 110.05 54.1616Z" fill="black" stroke="black" stroke-width="1.39263" stroke-miterlimit="1.5" stroke-linecap="round" stroke-linejoin="round"/>
<path d="M118.834 41.8305C119.687 40.731 119.488 39.1482 118.388 38.2952C117.289 37.4421 115.706 37.642 114.853 38.7415C114 39.841 114.199 41.4238 115.299 42.2768C116.398 43.1299 117.981 42.93 118.834 41.8305Z" fill="black" stroke="black" stroke-width="1.39263" stroke-miterlimit="1.5" stroke-linecap="round" stroke-linejoin="round"/>
<path d="M114.905 52.1881C114.905 52.1881 120.035 50.114 119.755 45.9368" stroke="black" stroke-width="1.39263" stroke-miterlimit="1.5" stroke-linecap="round" stroke-linejoin="round"/>
</g>
</svg>
