<?xml version="1.0" encoding="UTF-8" standalone="no"?>
<!DOCTYPE svg PUBLIC "-//W3C//DTD SVG 1.1//EN" "http://www.w3.org/Graphics/SVG/1.1/DTD/svg11.dtd">
<svg width="100%" height="100%" viewBox="0 0 278 248" version="1.1" xmlns="http://www.w3.org/2000/svg" xmlns:xlink="http://www.w3.org/1999/xlink" xml:space="preserve" xmlns:serif="http://www.serif.com/" style="fill-rule:evenodd;clip-rule:evenodd;stroke-linecap:round;stroke-linejoin:round;stroke-miterlimit:1.5;">
    <g transform="matrix(1,0,0,1,-2654,-1514)">
        <g transform="matrix(3.95957,0,0,1.69453,1216.62,0)">
            <g transform="matrix(1.48757,0,0,3.47596,-461.127,339.234)">
                <g>
                    <path d="M559.621,172.083C559.621,172.083 560.793,166.091 572.387,165.7C583.98,165.31 588.018,168.696 588.669,175.861C589.32,183.025 591.795,189.278 594.661,190.711C597.527,192.143 603.013,201.177 600.132,201.262C598.107,201.321 554.801,201.262 554.801,201.262C554.801,201.262 552.196,176.252 559.621,172.083Z" style="fill:rgb(254,229,99);stroke:black;stroke-width:0.34px;"/>
                    <path d="M565.602,170.395C565.602,170.395 568.269,172.663 569.403,170.328" style="fill:none;stroke:black;stroke-width:0.34px;"/>
                    <path d="M580.007,169.195L584.509,164.693C584.509,164.693 583.542,163.059 584.609,162.058C585.676,161.058 587.21,162.725 586.677,163.459C586.677,163.459 589.011,163.125 589.011,163.859C589.011,164.593 588.544,165.793 587.477,165.793C586.41,165.793 581.141,170.395 581.141,170.395C581.141,170.395 579.274,170.729 580.007,169.195Z" style="fill:white;stroke:black;stroke-width:0.34px;"/>
                    <g transform="matrix(0.187998,-0.982169,0.982169,0.187998,291.553,707.465)">
                        <path d="M580.007,169.195L584.509,164.693C584.509,164.693 583.542,163.059 584.609,162.058C585.676,161.058 587.21,162.725 586.677,163.459C586.677,163.459 588.256,162.727 588.998,163.794C589.418,164.396 589.456,166.298 587.477,165.793C586.443,165.53 581.141,170.395 581.141,170.395C581.141,170.395 579.274,170.729 580.007,169.195Z" style="fill:white;stroke:black;stroke-width:0.34px;"/>
                    </g>
                    <path d="M578.273,169.395C578.273,169.395 578.407,171.329 580.207,171.929" style="fill:none;stroke:black;stroke-width:0.34px;"/>
                    <g transform="matrix(1,0,0,1,-2.0008,-1.66734)">
                        <circle cx="569.486" cy="179.749" r="3.351" style="fill:white;stroke:black;stroke-width:0.34px;"/>
                    </g>
                    <g transform="matrix(0.379104,0,0,0.612604,349.661,67.8921)">
                        <circle cx="569.486" cy="179.749" r="3.351" style="stroke:black;stroke-width:0.67px;"/>
                    </g>
                    <g transform="matrix(0.240043,0,0,0.240043,430.222,134.168)">
                        <circle cx="569.486" cy="179.749" r="3.351" style="fill:white;"/>
                    </g>
                    <g transform="matrix(1,0,0,1,10.2708,-1.46725)">
                        <circle cx="569.486" cy="179.749" r="3.351" style="fill:white;stroke:black;stroke-width:0.34px;"/>
                    </g>
                    <g transform="matrix(0.379104,0,0,0.612604,361.924,67.9376)">
                        <circle cx="569.486" cy="179.749" r="3.351" style="stroke:black;stroke-width:0.67px;"/>
                    </g>
                    <g transform="matrix(0.274964,0,0,0.263774,422.689,130.254)">
                        <circle cx="569.486" cy="179.749" r="3.351" style="fill:white;"/>
                    </g>
                    <g transform="matrix(0.812334,0,0,0.812334,108.127,34.3895)">
                        <path d="M566.501,186.669C566.501,186.669 579.128,190.271 586.198,186.625C593.267,182.979 589.9,191.805 587.976,192.36C580.811,194.428 570.814,197.385 564.811,190.76C558.809,184.135 566.501,186.669 566.501,186.669Z" style="stroke:black;stroke-width:0.42px;"/>
                    </g>
                    <g transform="matrix(1,0,0,0.909498,-5.29279,15.6362)">
                        <path d="M575.336,192.708C575.336,192.708 583.275,193.818 582.706,198.2C582.137,202.582 588.113,201.302 588.483,198.627C588.853,195.952 587.828,191.797 575.336,192.708Z" style="fill:rgb(255,118,147);stroke:black;stroke-width:0.36px;"/>
                    </g>
                    <g transform="matrix(0.998339,-0.0576208,0.0758037,1.31338,-13.1113,-25.7127)">
                        <path d="M572.814,187.151L572.814,188.662C572.814,188.662 572.942,189.19 574.216,189.227C575.491,189.263 575.346,188.626 575.346,188.626L575.218,187.46L572.814,187.151Z" style="fill:white;stroke:black;stroke-width:0.29px;"/>
                    </g>
                    <g transform="matrix(0.990122,-0.140205,0.184449,1.30257,-25.9266,23.8956)">
                        <path d="M572.814,187.151L572.814,188.662C572.814,188.662 572.942,189.19 574.216,189.227C575.491,189.263 575.346,188.626 575.346,188.626L575.218,187.46L572.814,187.151Z" style="fill:white;stroke:black;stroke-width:0.29px;"/>
                    </g>
                    <path d="M569.988,190.824C569.988,190.824 578.27,190.979 579.454,193.597" style="fill:none;stroke:black;stroke-width:0.34px;"/>
                </g>
            </g>
        </g>
    </g>
</svg>
