<svg width="300" height="400" viewBox="0 0 300 400" fill="none" xmlns="http://www.w3.org/2000/svg">
<mask id="mask0_119_16" style="mask-type:alpha" maskUnits="userSpaceOnUse" x="0" y="0" width="300" height="400">
<rect width="300" height="400" fill="#C4C4C4"/>
</mask>
<g mask="url(#mask0_119_16)">
<path fill-rule="evenodd" clip-rule="evenodd" d="M121.34 34.1385H27.4099L26.9093 409.941L114.755 410.067L121.34 34.1385Z" fill="#8AE3F2" stroke="black" stroke-width="1.43048" stroke-miterlimit="1.5" stroke-linecap="round" stroke-linejoin="round"/>
<path fill-rule="evenodd" clip-rule="evenodd" d="M108.922 37.7523C108.922 35.6797 110.601 34 112.674 34H292.822C294.893 34 296.575 35.6797 296.575 37.7523V406.386C296.575 408.458 294.893 410.141 292.822 410.141H112.674C110.601 410.141 108.922 408.458 108.922 406.386V37.7523Z" fill="#FF7693" stroke="black" stroke-width="1.43254" stroke-miterlimit="1.5" stroke-linecap="round" stroke-linejoin="round"/>
<path fill-rule="evenodd" clip-rule="evenodd" d="M150.292 82.395C150.292 76.8825 154.766 72.4077 160.279 72.4077H271.631C277.143 72.4077 281.618 76.8825 281.618 82.395V193.744C281.618 199.257 277.143 203.734 271.631 203.734H160.279C154.766 203.734 150.292 199.257 150.292 193.744V82.395Z" fill="#FEE563" stroke="black" stroke-width="1.45226" stroke-miterlimit="1.5" stroke-linecap="round" stroke-linejoin="round"/>
<path fill-rule="evenodd" clip-rule="evenodd" d="M160.994 218.698V222.858H236.009V218.816L160.994 218.698Z" fill="#AD144C" stroke="black" stroke-width="1.45226" stroke-miterlimit="1.5" stroke-linecap="round" stroke-linejoin="round"/>
<path d="M249.257 115.249C248.007 115.249 246.994 114.236 246.994 112.986C246.994 111.736 248.007 110.723 249.257 110.723C250.507 110.723 251.52 111.736 251.52 112.986C251.52 114.236 250.507 115.249 249.257 115.249Z" fill="black" stroke="black" stroke-width="1.45226" stroke-miterlimit="1.5" stroke-linecap="round" stroke-linejoin="round"/>
<path d="M192.753 114.095C191.503 114.095 190.49 113.082 190.49 111.832C190.49 110.582 191.503 109.569 192.753 109.569C194.003 109.569 195.016 110.582 195.016 111.832C195.016 113.082 194.003 114.095 192.753 114.095Z" fill="black" stroke="black" stroke-width="1.45226" stroke-miterlimit="1.5" stroke-linecap="round" stroke-linejoin="round"/>
<path d="M227.33 126.729C227.33 126.729 226.647 132.012 221.875 131.331C217.104 130.647 216.935 126.557 216.935 126.557" stroke="black" stroke-width="1.45226" stroke-miterlimit="1.5" stroke-linecap="round" stroke-linejoin="round"/>
<path fill-rule="evenodd" clip-rule="evenodd" d="M198.811 244.827L187.86 245.096C187.86 245.096 184.755 246.339 184.793 251.574C184.846 259.074 190.382 257.61 198.835 257.958C207.291 258.305 198.811 244.827 198.811 244.827Z" fill="#5225F4" stroke="black" stroke-width="1.42401" stroke-miterlimit="1.5" stroke-linecap="round" stroke-linejoin="round"/>
<path fill-rule="evenodd" clip-rule="evenodd" d="M169.962 244.78L159.421 245.05C159.421 245.05 156.433 246.293 156.469 251.527C156.521 259.028 161.849 257.563 169.985 257.911C178.124 258.259 169.962 244.78 169.962 244.78Z" fill="#5225F4" stroke="black" stroke-width="1.425" stroke-miterlimit="1.5" stroke-linecap="round" stroke-linejoin="round"/>
<path d="M198.188 258.056C194.535 258.056 191.574 255.094 191.574 251.441C191.574 247.788 194.535 244.827 198.188 244.827C201.841 244.827 204.803 247.788 204.803 251.441C204.803 255.094 201.841 258.056 198.188 258.056Z" fill="#8AE3F2" stroke="black" stroke-width="1.45296" stroke-miterlimit="1.5" stroke-linecap="round" stroke-linejoin="round"/>
<path d="M168.829 257.917C165.175 257.917 162.214 254.956 162.214 251.303C162.214 247.649 165.175 244.688 168.829 244.688C172.482 244.688 175.443 247.649 175.443 251.303C175.443 254.956 172.482 257.917 168.829 257.917Z" fill="#8AE3F2" stroke="black" stroke-width="1.45296" stroke-miterlimit="1.5" stroke-linecap="round" stroke-linejoin="round"/>
<path fill-rule="evenodd" clip-rule="evenodd" d="M213.425 248.295C213.425 246.609 214.793 245.242 216.478 245.242H271.918C273.603 245.242 274.971 246.609 274.971 248.295V254.403C274.971 256.089 273.603 257.456 271.918 257.456H216.478C214.793 257.456 213.425 256.089 213.425 254.403V248.295Z" fill="#AD144C" stroke="black" stroke-width="1.45226" stroke-miterlimit="1.5" stroke-linecap="round" stroke-linejoin="round"/>
<path d="M141.836 80.3939V185.931" stroke="black" stroke-width="1.45226" stroke-miterlimit="1.5" stroke-linecap="round" stroke-linejoin="round"/>
<path d="M224.93 64.7446H163.07" stroke="black" stroke-width="1.45226" stroke-miterlimit="1.5" stroke-linecap="round" stroke-linejoin="round"/>
</g>
</svg>
