<svg width="317" height="281" viewBox="0 0 317 281" fill="none" xmlns="http://www.w3.org/2000/svg">
<mask id="mask0_119_216" style="mask-type:alpha" maskUnits="userSpaceOnUse" x="0" y="0" width="317" height="281">
<rect width="317" height="281" fill="#C4C4C4"/>
</mask>
<g mask="url(#mask0_119_216)">
<path fill-rule="evenodd" clip-rule="evenodd" d="M37.6698 87.9696C37.6698 87.9696 45.5418 47.7248 123.412 45.0987C201.276 42.4792 228.397 65.2211 232.77 113.344C237.142 161.461 253.765 203.459 273.015 213.083C292.264 222.701 329.11 283.377 309.76 283.948C296.159 284.345 5.29681 283.948 5.29681 283.948C5.29681 283.948 -12.1999 115.97 37.6698 87.9696Z" fill="#FEE563" stroke="black" stroke-width="2.28359" stroke-miterlimit="1.5" stroke-linecap="round" stroke-linejoin="round"/>
<path d="M77.8569 76.6124C77.8569 76.6124 95.7699 91.8452 103.386 76.1624" stroke="black" stroke-width="2.28359" stroke-miterlimit="1.5" stroke-linecap="round" stroke-linejoin="round"/>
<path fill-rule="evenodd" clip-rule="evenodd" d="M174.66 68.5682L204.897 38.3307C204.897 38.3307 198.402 27.3561 205.569 20.633C212.735 13.9165 223.038 25.1128 219.458 30.0427C219.458 30.0427 235.134 27.7994 235.134 32.7292C235.134 37.6591 231.998 45.7188 224.831 45.7188C217.665 45.7188 182.276 76.6279 182.276 76.6279C182.276 76.6279 169.737 78.8712 174.66 68.5682Z" fill="white" stroke="black" stroke-width="2.28359" stroke-miterlimit="1.5" stroke-linecap="round" stroke-linejoin="round"/>
<path fill-rule="evenodd" clip-rule="evenodd" d="M85.7226 71.3238L61.7088 35.9413C61.7088 35.9413 49.7088 40.2568 44.4528 31.9542C39.2034 23.6529 52.1371 15.6385 56.306 20.0814C56.306 20.0814 53.471 8.74106 61.4466 5.1936C65.9481 3.18313 78.543 5.33403 72.7128 17.7512C69.6723 24.2401 95.0705 65.3585 95.0705 65.3585C95.0705 65.3585 94.9164 78.0961 85.7226 71.3238Z" fill="white" stroke="black" stroke-width="2.28359" stroke-miterlimit="1.5" stroke-linecap="round" stroke-linejoin="round"/>
<path d="M162.989 69.8936C162.989 69.8936 163.889 82.8831 175.978 86.913" stroke="black" stroke-width="2.28359" stroke-miterlimit="1.5" stroke-linecap="round" stroke-linejoin="round"/>
<path d="M90.4576 150.74C102.888 150.74 112.964 140.663 112.964 128.233C112.964 115.803 102.888 105.726 90.4576 105.726C78.0274 105.726 67.9507 115.803 67.9507 128.233C67.9507 140.663 78.0274 150.74 90.4576 150.74Z" fill="white" stroke="black" stroke-width="2.28359" stroke-miterlimit="1.5" stroke-linecap="round" stroke-linejoin="round"/>
<path d="M77.5666 141.544C82.279 141.544 86.099 135.371 86.099 127.756C86.099 120.142 82.279 113.969 77.5666 113.969C72.8543 113.969 69.0342 120.142 69.0342 127.756C69.0342 135.371 72.8543 141.544 77.5666 141.544Z" fill="black" stroke="black" stroke-width="2.16862" stroke-miterlimit="1.5" stroke-linecap="round" stroke-linejoin="round"/>
<path d="M86.6648 128.489C89.6486 128.489 92.0674 126.07 92.0674 123.086C92.0674 120.102 89.6486 117.683 86.6648 117.683C83.6811 117.683 81.2622 120.102 81.2622 123.086C81.2622 126.07 83.6811 128.489 86.6648 128.489Z" fill="white"/>
<path d="M172.958 152.094C185.388 152.094 195.465 142.018 195.465 129.587C195.465 117.157 185.388 107.081 172.958 107.081C160.528 107.081 150.451 117.157 150.451 129.587C150.451 142.018 160.528 152.094 172.958 152.094Z" fill="white" stroke="black" stroke-width="2.28359" stroke-miterlimit="1.5" stroke-linecap="round" stroke-linejoin="round"/>
<path d="M159.912 141.854C164.625 141.854 168.445 135.681 168.445 128.066C168.445 120.451 164.625 114.278 159.912 114.278C155.2 114.278 151.38 120.451 151.38 128.066C151.38 135.681 155.2 141.854 159.912 141.854Z" fill="black" stroke="black" stroke-width="2.16862" stroke-miterlimit="1.5" stroke-linecap="round" stroke-linejoin="round"/>
<path d="M169.642 131.414C173.06 131.414 175.83 128.756 175.83 125.478C175.83 122.199 173.06 119.541 169.642 119.541C166.224 119.541 163.453 122.199 163.453 125.478C163.453 128.756 166.224 131.414 169.642 131.414Z" fill="white"/>
<path fill-rule="evenodd" clip-rule="evenodd" d="M96.0136 181.621C96.0136 181.621 164.907 201.273 203.481 181.381C242.049 161.488 223.679 209.643 213.181 212.671C174.089 223.954 119.545 240.087 86.7929 203.941C54.046 167.795 96.0136 181.621 96.0136 181.621Z" fill="black" stroke="black" stroke-width="2.29152" stroke-miterlimit="1.5" stroke-linecap="round" stroke-linejoin="round"/>
<path fill-rule="evenodd" clip-rule="evenodd" d="M107.73 214.355C107.73 214.355 161.052 221.136 157.231 247.904C153.409 274.671 193.546 266.853 196.031 250.512C198.517 234.172 191.632 208.79 107.73 214.355Z" fill="#FF7693" stroke="black" stroke-width="2.30591" stroke-miterlimit="1.5" stroke-linecap="round" stroke-linejoin="round"/>
<path fill-rule="evenodd" clip-rule="evenodd" d="M127.079 188.691L127.848 202.02C127.848 202.02 128.975 206.628 137.536 206.461C146.104 206.286 144.807 200.723 144.807 200.723L143.355 190.487L127.079 188.691Z" fill="white" stroke="black" stroke-width="2.23405" stroke-miterlimit="1.5" stroke-linecap="round" stroke-linejoin="round"/>
<path fill-rule="evenodd" clip-rule="evenodd" d="M145.962 190.587L147.834 203.806C147.834 203.806 149.339 208.305 157.858 207.429C166.381 206.544 164.628 201.107 164.628 201.107L162.332 191.027L145.962 190.587Z" fill="white" stroke="black" stroke-width="2.23405" stroke-miterlimit="1.5" stroke-linecap="round" stroke-linejoin="round"/>
<path d="M107.266 213.844C107.266 213.844 162.892 214.885 170.844 232.468" stroke="black" stroke-width="2.28359" stroke-miterlimit="1.5" stroke-linecap="round" stroke-linejoin="round"/>
</g>
</svg>
