<svg width="691" height="403" viewBox="0 0 691 403" fill="none" xmlns="http://www.w3.org/2000/svg">
<mask id="mask0_113_139" style="mask-type:alpha" maskUnits="userSpaceOnUse" x="0" y="0" width="691" height="403">
<rect width="691" height="403" fill="#C4C4C4"/>
</mask>
<g mask="url(#mask0_113_139)">
<path fill-rule="evenodd" clip-rule="evenodd" d="M296 90.7506C296 52.2497 264.744 21 226.252 21H86.7484C48.2557 21 17 52.2497 17 90.7506V734.801C17 773.302 48.2557 804.551 86.7484 804.551H226.252C264.744 804.551 296 773.302 296 734.801V90.7506Z" fill="#5225F4" stroke="black" stroke-width="2.6928" stroke-miterlimit="1.5" stroke-linecap="round" stroke-linejoin="round"/>
<path d="M239.316 235.744C261.164 235.744 278.876 218.032 278.876 196.184C278.876 174.336 261.164 156.625 239.316 156.625C217.468 156.625 199.757 174.336 199.757 196.184C199.757 218.032 217.468 235.744 239.316 235.744Z" fill="white" stroke="black" stroke-width="2.73917" stroke-miterlimit="1.5" stroke-linecap="round" stroke-linejoin="round"/>
<path d="M258.823 216.755C269.557 216.755 278.259 208.053 278.259 197.319C278.259 186.584 269.557 177.883 258.823 177.883C248.089 177.883 239.387 186.584 239.387 197.319C239.387 208.053 248.089 216.755 258.823 216.755Z" fill="black" stroke="black" stroke-width="2.76244" stroke-miterlimit="1.5" stroke-linecap="round" stroke-linejoin="round"/>
<path d="M166.598 237.668C188.447 237.668 206.158 219.956 206.158 198.108C206.158 176.26 188.447 158.549 166.598 158.549C144.75 158.549 127.039 176.26 127.039 198.108C127.039 219.956 144.75 237.668 166.598 237.668Z" fill="white" stroke="black" stroke-width="2.73917" stroke-miterlimit="1.5" stroke-linecap="round" stroke-linejoin="round"/>
<path fill-rule="evenodd" clip-rule="evenodd" d="M239.316 158.164C261.143 158.164 279.208 172.354 279.619 189.834C280.029 207.313 200.91 207.313 200.5 189.834C200.09 172.354 217.482 158.164 239.316 158.164Z" fill="#5225F4" stroke="black" stroke-width="2.70922" stroke-miterlimit="1.5" stroke-linecap="round" stroke-linejoin="round"/>
<path d="M186.874 217.909C197.609 217.909 206.31 209.207 206.31 198.473C206.31 187.739 197.609 179.037 186.874 179.037C176.14 179.037 167.438 187.739 167.438 198.473C167.438 209.207 176.14 217.909 186.874 217.909Z" fill="black" stroke="black" stroke-width="2.76244" stroke-miterlimit="1.5" stroke-linecap="round" stroke-linejoin="round"/>
<path fill-rule="evenodd" clip-rule="evenodd" d="M166.983 157.875C188.81 157.875 206.875 172.066 207.286 189.545C207.696 207.025 128.577 207.025 128.167 189.545C127.757 172.066 145.149 157.875 166.983 157.875Z" fill="#5225F4" stroke="black" stroke-width="2.70922" stroke-miterlimit="1.5" stroke-linecap="round" stroke-linejoin="round"/>
<path d="M210.676 327.843C216.281 327.843 220.825 323.299 220.825 317.693C220.825 312.088 216.281 307.544 210.676 307.544C205.071 307.544 200.526 312.088 200.526 317.693C200.526 323.299 205.071 327.843 210.676 327.843Z" fill="black" stroke="black" stroke-width="2.73917" stroke-miterlimit="1.5" stroke-linecap="round" stroke-linejoin="round"/>
<path d="M37.0073 88.7971C37.0073 88.7971 37.0077 45.5903 88.8575 42.3538" stroke="black" stroke-width="2.73917" stroke-miterlimit="1.5" stroke-linecap="round" stroke-linejoin="round"/>
<path fill-rule="evenodd" clip-rule="evenodd" d="M401 94.5006C401 56.1377 432.144 25 470.498 25H609.502C647.856 25 679 56.1377 679 94.5006V736.242C679 774.605 647.856 805.743 609.502 805.743H470.498C432.144 805.743 401 774.605 401 736.242V94.5006Z" fill="#AD144C" stroke="black" stroke-width="2.68315" stroke-miterlimit="1.5" stroke-linecap="round" stroke-linejoin="round"/>
<path d="M457.864 238.974C436.094 238.974 418.446 221.326 418.446 199.557C418.446 177.787 436.094 160.139 457.864 160.139C479.634 160.139 497.281 177.787 497.281 199.557C497.281 221.326 479.634 238.974 457.864 238.974Z" fill="white" stroke="black" stroke-width="2.72936" stroke-miterlimit="1.5" stroke-linecap="round" stroke-linejoin="round"/>
<path d="M438.427 220.053C427.731 220.053 419.061 211.383 419.061 200.687C419.061 189.991 427.731 181.32 438.427 181.32C449.123 181.32 457.794 189.991 457.794 200.687C457.794 211.383 449.123 220.053 438.427 220.053Z" fill="black" stroke="black" stroke-width="2.75254" stroke-miterlimit="1.5" stroke-linecap="round" stroke-linejoin="round"/>
<path d="M529.938 240.891C508.168 240.891 490.52 223.243 490.52 201.473C490.52 179.704 508.168 162.056 529.938 162.056C551.708 162.056 569.355 179.704 569.355 201.473C569.355 223.243 551.708 240.891 529.938 240.891Z" fill="white" stroke="black" stroke-width="2.72936" stroke-miterlimit="1.5" stroke-linecap="round" stroke-linejoin="round"/>
<path d="M509.735 221.204C499.039 221.204 490.368 212.533 490.368 201.837C490.368 191.141 499.039 182.47 509.735 182.47C520.431 182.47 529.102 191.141 529.102 201.837C529.102 212.533 520.431 221.204 509.735 221.204Z" fill="black" stroke="black" stroke-width="2.75254" stroke-miterlimit="1.5" stroke-linecap="round" stroke-linejoin="round"/>
<path d="M486.018 330.743C480.433 330.743 475.905 326.215 475.905 320.63C475.905 315.045 480.433 310.517 486.018 310.517C491.603 310.517 496.131 315.045 496.131 320.63C496.131 326.215 491.603 330.743 486.018 330.743Z" fill="black" stroke="black" stroke-width="2.72936" stroke-miterlimit="1.5" stroke-linecap="round" stroke-linejoin="round"/>
<path fill-rule="evenodd" clip-rule="evenodd" d="M416.39 250.112C416.39 250.112 428.923 229.132 454.263 227.775C479.057 226.439 488.315 245.752 488.315 245.752" fill="#AD144C"/>
<path d="M416.39 250.112C416.39 250.112 428.923 229.132 454.263 227.775C479.057 226.439 488.315 245.752 488.315 245.752" stroke="black" stroke-width="2.72936" stroke-miterlimit="1.5" stroke-linecap="round" stroke-linejoin="round"/>
<path fill-rule="evenodd" clip-rule="evenodd" d="M573.573 146.649C573.573 146.649 561.039 167.629 535.699 168.986C510.905 170.322 501.647 151.008 501.647 151.008" fill="#AD144C"/>
<path d="M573.573 146.649C573.573 146.649 561.039 167.629 535.699 168.986C510.905 170.322 501.647 151.008 501.647 151.008" stroke="black" stroke-width="2.72936" stroke-miterlimit="1.5" stroke-linecap="round" stroke-linejoin="round"/>
<path fill-rule="evenodd" clip-rule="evenodd" d="M498.048 247.812C498.048 247.812 510.582 226.832 535.922 225.474C560.716 224.139 569.974 243.452 569.974 243.452" fill="#AD144C"/>
<path d="M498.048 247.812C498.048 247.812 510.582 226.832 535.922 225.474C560.716 224.139 569.974 243.452 569.974 243.452" stroke="black" stroke-width="2.72936" stroke-miterlimit="1.5" stroke-linecap="round" stroke-linejoin="round"/>
<path fill-rule="evenodd" clip-rule="evenodd" d="M492.297 148.949C492.297 148.949 479.764 169.929 454.424 171.286C429.63 172.622 420.372 153.309 420.372 153.309" fill="#AD144C"/>
<path d="M492.297 148.949C492.297 148.949 479.764 169.929 454.424 171.286C429.63 172.622 420.372 153.309 420.372 153.309" stroke="black" stroke-width="2.72936" stroke-miterlimit="1.5" stroke-linecap="round" stroke-linejoin="round"/>
</g>
</svg>
