<?xml version="1.0" encoding="UTF-8" standalone="no"?>
<!DOCTYPE svg PUBLIC "-//W3C//DTD SVG 1.1//EN" "http://www.w3.org/Graphics/SVG/1.1/DTD/svg11.dtd">
<svg width="100%" height="100%" viewBox="0 0 1500 400" version="1.1" xmlns="http://www.w3.org/2000/svg" xmlns:xlink="http://www.w3.org/1999/xlink" xml:space="preserve" xmlns:serif="http://www.serif.com/" style="fill-rule:evenodd;clip-rule:evenodd;stroke-linecap:round;stroke-linejoin:round;stroke-miterlimit:1.5;">
    <g transform="matrix(1,0,0,1,-1227.31,0)">
        <g id="Artboard1" transform="matrix(1.38889,0,0,0.37037,1227.31,0)">
            <rect x="0" y="0" width="1080" height="1080" style="fill:none;"/>
            <clipPath id="_clip1">
                <rect x="0" y="0" width="1080" height="1080"/>
            </clipPath>
            <g clip-path="url(#_clip1)">
                <g transform="matrix(0.72,0,0,2.7,-885.551,359.696)">
                    <path d="M1194.37,21.476L1883.44,157.775L2742.19,49.118L2763.49,276.218L2774.68,418.873L1162.8,466.71L1194.37,21.476Z" style="fill:rgb(255,119,148);stroke:black;stroke-width:2px;"/>
                </g>
                <g transform="matrix(0.72,0,0,2.7,-883.611,446.413)">
                    <path d="M1194.37,21.476L1883.44,157.775L2742.19,49.118L2763.49,276.218L2774.68,418.873L1162.8,466.71L1194.37,21.476Z" style="fill:rgb(254,229,99);stroke:black;stroke-width:2px;"/>
                </g>
                <g transform="matrix(0.72,0,0,2.7,-851.147,702.241)">
                    <path d="M1194.37,21.476L1978.96,189.621L2742.19,49.118L2763.49,276.218L2774.68,418.873L1162.8,466.71L1194.37,21.476Z" style="fill:rgb(173,20,76);stroke:black;stroke-width:2px;"/>
                </g>
                <g transform="matrix(2.51497,0,0,9.43115,-2091.7,-1157.12)">
                    <g transform="matrix(1,0,0,1,-6.94943,-8.77224)">
                        <circle cx="1121.88" cy="174.256" r="9.452" style="fill:rgb(255,118,147);stroke:black;stroke-width:0.57px;"/>
                    </g>
                    <path d="M1109.52,173.237L1111.81,181.867L1105,188.271" style="fill:none;stroke:black;stroke-width:0.57px;"/>
                    <g transform="matrix(1,0,0,1,11.2216,-0.170888)">
                        <path d="M1107.74,174.234L1111.55,181.208L1109.67,186.221" style="fill:none;stroke:black;stroke-width:0.57px;"/>
                    </g>
                    <g transform="matrix(1.71617,0,0,1.71617,-794.665,-116.797)">
                        <circle cx="1110.45" cy="162.665" r="0.481" style="stroke:black;stroke-width:0.33px;"/>
                    </g>
                    <g transform="matrix(1.71617,0,0,1.71617,-785.927,-117.391)">
                        <circle cx="1110.45" cy="162.665" r="0.481" style="stroke:black;stroke-width:0.33px;"/>
                    </g>
                    <path d="M1112.52,167.181C1112.52,167.181 1112.32,169.548 1113.89,169.373C1115.47,169.198 1115.39,167.509 1115.39,167.509C1115.39,167.509 1115.2,169.187 1116.13,169.132C1116.97,169.083 1117.94,168.242 1117.9,166.684" style="fill:none;stroke:black;stroke-width:0.57px;"/>
                    <path d="M1107.02,166.678L1102.5,161.904L1104.15,155.741" style="fill:none;stroke:black;stroke-width:0.57px;"/>
                    <g transform="matrix(-1,0,0,1,2231.13,-0.3472)">
                        <path d="M1106.67,166.261L1102.5,161.904L1100.77,155.221" style="fill:none;stroke:black;stroke-width:0.57px;"/>
                    </g>
                </g>
                <g transform="matrix(2.05384,0,0,7.04835,-1624.01,-961.199)">
                    <g transform="matrix(0.933894,0.357549,-0.357549,0.933894,140.26,-413.159)">
                        <path d="M1179.95,155.427L1182.83,164.274L1192.13,164.274L1184.61,169.742L1187.48,178.589L1179.95,173.121L1172.43,178.589L1175.3,169.742L1167.78,164.274L1177.08,164.274L1179.95,155.427Z" style="fill:rgb(254,229,99);stroke:black;stroke-width:0.75px;"/>
                    </g>
                    <g transform="matrix(1,0,0,1,4.86259,-1.04733)">
                        <path d="M1171.44,172.743L1168.76,176.574L1168.76,182.367" style="fill:none;stroke:black;stroke-width:0.73px;"/>
                    </g>
                    <g transform="matrix(0.934951,-0.354777,0.354777,0.934951,25.1388,426.884)">
                        <path d="M1171.44,172.743L1168.76,176.574L1168.76,182.367" style="fill:none;stroke:black;stroke-width:0.71px;"/>
                    </g>
                    <g transform="matrix(0.610741,-0.79183,0.79183,0.610741,330.492,1001.06)">
                        <path d="M1178.5,160.128L1176.23,155.915L1178.09,150.314" style="fill:none;stroke:black;stroke-width:0.7px;"/>
                    </g>
                    <g transform="matrix(-0.591561,-0.80626,-0.80626,0.591561,2011.01,1024.46)">
                        <path d="M1177.36,159.553L1174.73,157.035L1171.56,150.604" style="fill:none;stroke:black;stroke-width:0.7px;"/>
                    </g>
                    <g transform="matrix(1,0,0,1,-1.45549,-0.191511)">
                        <circle cx="1179.42" cy="162.579" r="0.804" style="stroke:black;stroke-width:0.73px;"/>
                    </g>
                    <g transform="matrix(1,0,0,1,8.31159,3.60041)">
                        <circle cx="1179.42" cy="162.579" r="0.804" style="stroke:black;stroke-width:0.73px;"/>
                    </g>
                    <path d="M1178.93,164.456C1178.93,164.456 1182.18,166.716 1185.32,166.716" style="fill:none;stroke:black;stroke-width:0.73px;"/>
                </g>
                <g transform="matrix(3.86134,0,0,14.48,-1507.21,-1822.7)">
                    <g>
                        <path d="M559.621,172.083C559.621,172.083 560.793,166.091 572.387,165.7C583.98,165.31 588.018,168.696 588.669,175.861C589.32,183.025 591.795,189.278 594.661,190.711C597.527,192.143 603.013,201.177 600.132,201.262C598.107,201.321 554.801,201.262 554.801,201.262C554.801,201.262 552.196,176.252 559.621,172.083Z" style="fill:rgb(254,229,99);stroke:black;stroke-width:0.37px;"/>
                        <path d="M565.602,170.395C565.602,170.395 568.269,172.663 569.403,170.328" style="fill:none;stroke:black;stroke-width:0.37px;"/>
                        <path d="M580.007,169.195L584.509,164.693C584.509,164.693 583.542,163.059 584.609,162.058C585.676,161.058 587.21,162.725 586.677,163.459C586.677,163.459 589.011,163.125 589.011,163.859C589.011,164.593 588.544,165.793 587.477,165.793C586.41,165.793 581.141,170.395 581.141,170.395C581.141,170.395 579.274,170.729 580.007,169.195Z" style="fill:white;stroke:black;stroke-width:0.37px;"/>
                        <g transform="matrix(0.187998,-0.982169,0.982169,0.187998,291.553,707.465)">
                            <path d="M580.007,169.195L584.509,164.693C584.509,164.693 583.542,163.059 584.609,162.058C585.676,161.058 587.21,162.725 586.677,163.459C586.677,163.459 588.256,162.727 588.998,163.794C589.418,164.396 589.456,166.298 587.477,165.793C586.443,165.53 581.141,170.395 581.141,170.395C581.141,170.395 579.274,170.729 580.007,169.195Z" style="fill:white;stroke:black;stroke-width:0.37px;"/>
                        </g>
                        <path d="M578.273,169.395C578.273,169.395 578.407,171.329 580.207,171.929" style="fill:none;stroke:black;stroke-width:0.37px;"/>
                        <g transform="matrix(1,0,0,1,-2.0008,-1.66734)">
                            <circle cx="569.486" cy="179.749" r="3.351" style="fill:white;stroke:black;stroke-width:0.37px;"/>
                        </g>
                        <g transform="matrix(0.379104,0,0,0.612604,349.661,67.8921)">
                            <circle cx="569.486" cy="179.749" r="3.351" style="stroke:black;stroke-width:0.73px;"/>
                        </g>
                        <g transform="matrix(0.240043,0,0,0.240043,430.222,134.168)">
                            <circle cx="569.486" cy="179.749" r="3.351" style="fill:white;"/>
                        </g>
                        <g transform="matrix(1,0,0,1,10.2708,-1.46725)">
                            <circle cx="569.486" cy="179.749" r="3.351" style="fill:white;stroke:black;stroke-width:0.37px;"/>
                        </g>
                        <g transform="matrix(0.379104,0,0,0.612604,361.924,67.9376)">
                            <circle cx="569.486" cy="179.749" r="3.351" style="stroke:black;stroke-width:0.73px;"/>
                        </g>
                        <g transform="matrix(0.274964,0,0,0.263774,422.689,130.254)">
                            <circle cx="569.486" cy="179.749" r="3.351" style="fill:white;"/>
                        </g>
                        <g transform="matrix(0.812334,0,0,0.812334,108.127,34.3895)">
                            <path d="M566.501,186.669C566.501,186.669 579.128,190.271 586.198,186.625C593.267,182.979 589.9,191.805 587.976,192.36C580.811,194.428 570.814,197.385 564.811,190.76C558.809,184.135 566.501,186.669 566.501,186.669Z" style="stroke:black;stroke-width:0.46px;"/>
                        </g>
                        <g transform="matrix(1,0,0,0.909498,-5.29279,15.6362)">
                            <path d="M575.336,192.708C575.336,192.708 583.275,193.818 582.706,198.2C582.137,202.582 588.113,201.302 588.483,198.627C588.853,195.952 587.828,191.797 575.336,192.708Z" style="fill:rgb(255,118,147);stroke:black;stroke-width:0.39px;"/>
                        </g>
                        <g transform="matrix(0.998339,-0.0576208,0.0758037,1.31338,-13.1113,-25.7127)">
                            <path d="M572.814,187.151L572.814,188.662C572.814,188.662 572.942,189.19 574.216,189.227C575.491,189.263 575.346,188.626 575.346,188.626L575.218,187.46L572.814,187.151Z" style="fill:white;stroke:black;stroke-width:0.32px;"/>
                        </g>
                        <g transform="matrix(0.990122,-0.140205,0.184449,1.30257,-25.9266,23.8956)">
                            <path d="M572.814,187.151L572.814,188.662C572.814,188.662 572.942,189.19 574.216,189.227C575.491,189.263 575.346,188.626 575.346,188.626L575.218,187.46L572.814,187.151Z" style="fill:white;stroke:black;stroke-width:0.32px;"/>
                        </g>
                        <path d="M569.988,190.824C569.988,190.824 578.27,190.979 579.454,193.597" style="fill:none;stroke:black;stroke-width:0.37px;"/>
                    </g>
                </g>
                <g transform="matrix(1.26137,-6.09683,1.62582,4.73014,-581.063,4414.45)">
                    <g transform="matrix(0.825862,0,0,0.825862,104.002,13.6377)">
                        <circle cx="732.534" cy="124.945" r="23.2" style="fill:rgb(255,200,31);stroke:black;stroke-width:0.85px;"/>
                    </g>
                    <g transform="matrix(1,0,0,1,4.48287,-1.42271)">
                        <circle cx="703.82" cy="112.12" r="0.778" style="stroke:black;stroke-width:0.7px;"/>
                    </g>
                    <g transform="matrix(1,0,0,1,9.15365,-1.61061)">
                        <circle cx="703.82" cy="112.12" r="0.778" style="stroke:black;stroke-width:0.7px;"/>
                    </g>
                    <g transform="matrix(1,0,0,1,0.41943,-0.0524288)">
                        <path d="M709.28,112.335C709.28,112.335 710.757,113.194 711.723,112.335" style="fill:none;stroke:black;stroke-width:0.7px;"/>
                    </g>
                </g>
                <g transform="matrix(2.04963,0,0,7.68612,-970.462,31.9108)">
                    <g transform="matrix(0.825862,0,0,0.825862,104.002,13.6377)">
                        <circle cx="732.534" cy="124.945" r="23.2" style="fill:rgb(82,37,244);stroke:black;stroke-width:0.85px;"/>
                    </g>
                    <g transform="matrix(1,0,0,1,4.48287,-1.42271)">
                        <circle cx="703.82" cy="112.12" r="0.778" style="stroke:black;stroke-width:0.7px;"/>
                    </g>
                    <g transform="matrix(1,0,0,1,9.15365,-1.61061)">
                        <circle cx="703.82" cy="112.12" r="0.778" style="stroke:black;stroke-width:0.7px;"/>
                    </g>
                    <g transform="matrix(1,0,0,1,0.41943,-0.0524288)">
                        <path d="M709.28,112.335C709.28,112.335 710.757,113.194 711.723,112.335" style="fill:rgb(82,37,244);stroke:black;stroke-width:0.7px;"/>
                    </g>
                </g>
                <g transform="matrix(1.44651,2.1986,-0.58922,5.4515,-2046.95,-4278.67)">
                    <path d="M1654.66,139.045C1648.44,143.543 1641.65,148.539 1646.83,160.368C1648.23,163.573 1649.67,167.702 1650.47,172.07C1650.74,173.523 1652.79,179.581 1636.17,171.429C1632.22,169.495 1631.61,177.87 1627.44,175.323C1624.98,173.822 1620.13,178.051 1625.64,181.118C1633.61,185.546 1653.56,180.491 1649.98,186.316C1645.56,193.478 1645.34,194.634 1639.7,196.981C1625.36,202.943 1637.56,201.059 1648.53,202.888C1654.97,203.963 1661.95,194.832 1669.02,196.451C1679.81,198.925 1654.79,209.485 1682.01,207.833C1693.89,207.111 1679.22,197.811 1685.28,195.06C1695.9,190.24 1699.66,204.36 1707.74,203.172C1717.37,201.755 1713.83,190.556 1702.64,187.306C1696.63,185.559 1705.03,178.925 1712.86,181.964C1716.86,183.518 1723.47,182.973 1724.48,183.001C1737.88,183.38 1725.51,176.242 1721.18,175.125C1718.17,174.351 1714.48,171.046 1703.94,172.824C1695.98,174.166 1688.23,178.643 1689.95,174.197C1693.41,165.285 1690.56,164.039 1694.91,157.769C1700.41,149.835 1689.97,134.41 1674.37,134.13C1665.17,133.964 1658.81,136.045 1654.66,139.045Z" style="fill:rgb(255,118,147);stroke:black;stroke-width:0.92px;"/>
                    <g transform="matrix(1,0,0,1,-4.71913,-3.48133)">
                        <circle cx="1657.91" cy="154.68" r="5.113" style="fill:white;stroke:black;stroke-width:0.92px;"/>
                    </g>
                    <g transform="matrix(0.46936,0,0,0.46936,877.243,80.2569)">
                        <circle cx="1657.91" cy="154.68" r="5.113" style="stroke:black;stroke-width:1.96px;"/>
                    </g>
                    <g transform="matrix(1,0,0,1,8.43255,-11.0629)">
                        <circle cx="1657.91" cy="154.68" r="5.113" style="fill:white;stroke:black;stroke-width:0.92px;"/>
                    </g>
                    <g transform="matrix(1,0,0,1,23.3246,-3.59644)">
                        <circle cx="1657.91" cy="154.68" r="5.113" style="fill:white;stroke:black;stroke-width:0.92px;"/>
                    </g>
                    <g transform="matrix(0.46936,0,0,0.46936,890.093,72.6383)">
                        <circle cx="1657.91" cy="154.68" r="5.113" style="stroke:black;stroke-width:1.96px;"/>
                    </g>
                    <g transform="matrix(0.46936,0,0,0.46936,905.207,80.2086)">
                        <circle cx="1657.91" cy="154.68" r="5.113" style="stroke:black;stroke-width:1.96px;"/>
                    </g>
                    <g transform="matrix(0.842857,0,0,1.36429,262.518,-60.6147)">
                        <circle cx="1666.98" cy="167.708" r="3.943" style="fill:none;stroke:black;stroke-width:0.81px;"/>
                    </g>
                    <g transform="matrix(0.445483,0,0,0.827135,924.935,29.3687)">
                        <circle cx="1666.98" cy="167.708" r="3.943" style="stroke:black;stroke-width:1.38px;"/>
                    </g>
                    <g transform="matrix(1,0,0,1,2.92259,-2.57876)">
                        <path d="M1668.69,122.49C1687.24,122.49 1699.89,135.455 1699.89,154.004C1699.89,161.21 1695.71,168.283 1691.84,173.757C1685.76,182.376 1679.17,181.453 1667.82,181.453C1657.59,181.453 1650.77,182.522 1644.6,175.296C1639.59,169.426 1636.44,162.214 1636.44,153.9C1636.44,135.35 1650.14,122.49 1668.69,122.49Z" style="fill:none;stroke:black;stroke-width:0.92px;"/>
                    </g>
                    <path d="M1649.81,175.035L1648.47,175.893C1648.47,175.893 1648.47,182.868 1671.21,181.902C1693.96,180.936 1692.3,176.161 1692.3,176.161C1691.62,175.59 1691.28,175.784 1689.88,176.215C1689.88,176.215 1687.81,177.818 1682.66,178.664C1679.65,179.158 1675.31,178.647 1671.33,178.851C1666.29,179.109 1662.27,179.458 1655.94,178.077C1653.86,177.624 1651.51,176.439 1649.81,175.035Z" style="fill:rgb(255,200,31);stroke:black;stroke-width:0.92px;"/>
                    <path d="M1650.88,178.635L1651.61,176.678" style="fill:none;stroke:black;stroke-width:0.92px;"/>
                    <g transform="matrix(1.73236,0,0,1.11551,-1203.96,-18.4707)">
                        <path d="M1650.88,178.635L1651.16,176.369" style="fill:none;stroke:black;stroke-width:0.63px;"/>
                    </g>
                    <g transform="matrix(1.00065,-0.00896777,-0.00905752,1.12499,11.43,-4.39888)">
                        <path d="M1650.88,178.635L1651.06,176.266" style="fill:none;stroke:black;stroke-width:0.87px;"/>
                    </g>
                    <g transform="matrix(0.989522,-0.155701,0.152959,1.27172,8.0241,211.836)">
                        <path d="M1650.88,178.635L1651.06,176.266" style="fill:none;stroke:black;stroke-width:0.81px;"/>
                    </g>
                    <g transform="matrix(0.990823,-0.135169,0.135169,0.990823,17.6739,227.502)">
                        <path d="M1650.88,178.635L1651.06,176.266" style="fill:none;stroke:black;stroke-width:0.92px;"/>
                    </g>
                    <g transform="matrix(0.948163,-0.317785,0.317785,0.948163,62.188,535.671)">
                        <path d="M1650.88,178.635L1650.98,176.602" style="fill:none;stroke:black;stroke-width:0.92px;"/>
                    </g>
                    <g transform="matrix(1.5735,-1.17163,0.528692,0.710037,-1001.31,1985.56)">
                        <path d="M1650.88,178.635L1650.98,176.602" style="fill:none;stroke:black;stroke-width:0.61px;"/>
                    </g>
                    <g transform="matrix(0.751687,-0.142187,0.100279,0.530133,396.663,294.601)">
                        <path d="M1644.97,140.412C1651.1,137.111 1675.39,125.764 1670.77,124.694C1668.67,124.205 1662.77,123.286 1652.68,129.967C1642.6,136.647 1642.2,141.902 1644.97,140.412Z" style="fill:none;stroke:black;stroke-width:1.39px;"/>
                    </g>
                </g>
                <g transform="matrix(-0.440634,0,0,1.65238,1125.64,-428.385)">
                    <g transform="matrix(3.62794,0,0,3.62794,-31.2608,161.412)">
                        <path d="M219.924,207.737L158.534,209.002L132.755,111.106C132.755,111.106 125.313,80.116 147.549,72.704C174.934,63.575 183.748,93.478 183.748,93.478L219.924,207.737Z" style="fill:rgb(255,200,31);stroke:black;stroke-width:0.87px;"/>
                    </g>
                    <g transform="matrix(3.62794,0,0,3.62794,-370.378,167.844)">
                        <g transform="matrix(1,0,0,1,54.7949,-0.268602)">
                            <path d="M218.687,207.11L157.622,208.369L132.755,111.106C132.755,111.106 125.313,80.116 147.549,72.704C174.934,63.575 183.748,93.478 183.748,93.478L218.687,207.11Z" style="fill:rgb(138,227,242);stroke:black;stroke-width:0.87px;"/>
                        </g>
                        <path d="M210.175,95.065L219.389,92.865" style="fill:none;stroke:black;stroke-width:0.87px;"/>
                        <g transform="matrix(1,0,0,1,15.4027,-3.43811)">
                            <path d="M210.175,95.065L219.389,92.865" style="fill:none;stroke:black;stroke-width:0.87px;"/>
                        </g>
                        <path d="M222.139,103.316C222.139,103.316 222.002,99.878 224.615,99.191C227.228,98.503 228.19,101.391 228.19,101.391" style="fill:rgb(138,227,242);stroke:black;stroke-width:0.87px;"/>
                        <path d="M233.888,94.025C233.888,94.025 234.001,97.179 234.226,98.418C234.384,99.286 235.634,98.7 235.972,98.137C236.31,97.573 233.832,94.701 233.888,94.025Z" style="fill:rgb(138,227,242);stroke:black;stroke-width:0.87px;"/>
                        <g transform="matrix(1,0,0,1,-23.6712,1.23653)">
                            <path d="M233.888,94.025C233.888,94.025 234.001,97.179 234.226,98.418C234.384,99.286 235.634,98.7 235.972,98.137C236.31,97.573 233.832,94.701 233.888,94.025Z" style="fill:rgb(138,227,242);stroke:black;stroke-width:0.87px;"/>
                        </g>
                    </g>
                    <g transform="matrix(3.62794,0,0,3.62794,-326.721,168.623)">
                        <path d="M217.755,207.575L158.058,208.806L132.755,111.106C132.755,111.106 125.313,80.116 147.549,72.704C174.934,63.575 183.748,93.478 183.748,93.478L217.755,207.575Z" style="fill:rgb(254,229,99);stroke:black;stroke-width:0.87px;"/>
                        <g transform="matrix(1.09446,-0.319555,0.280272,0.959921,-40.683,54.1692)">
                            <ellipse cx="157.988" cy="104.716" rx="4.659" ry="11.835" style="fill:white;stroke:black;stroke-width:0.81px;"/>
                        </g>
                        <g transform="matrix(0.700115,-0.204415,0.179287,0.61405,34.1852,71.638)">
                            <ellipse cx="157.988" cy="104.716" rx="4.659" ry="11.835" style="stroke:black;stroke-width:1.27px;"/>
                        </g>
                        <g transform="matrix(2.01333,0,0,2.01333,-166.32,-107.514)">
                            <circle cx="162.271" cy="104.956" r="0.911" style="fill:white;"/>
                        </g>
                        <g transform="matrix(1.09446,-0.319555,0.280272,0.959921,-21.687,51.3878)">
                            <ellipse cx="157.988" cy="104.716" rx="4.659" ry="11.835" style="fill:white;stroke:black;stroke-width:0.81px;"/>
                        </g>
                        <g transform="matrix(0.617041,-0.18016,0.158013,0.541188,68.9559,72.2098)">
                            <ellipse cx="157.988" cy="104.716" rx="4.659" ry="11.835" style="stroke:black;stroke-width:1.44px;"/>
                        </g>
                        <g transform="matrix(1.90118,0,0,1.90118,-128.302,-98.7364)">
                            <circle cx="162.271" cy="104.956" r="0.911" style="fill:white;"/>
                        </g>
                        <g transform="matrix(1,0,0,1,-1.06609,-2.8022)">
                            <path d="M158.885,120.947C158.885,120.947 160.575,117.884 165.222,116.722C169.869,115.561 172.562,117.62 172.562,117.62" style="fill:rgb(254,229,99);stroke:black;stroke-width:0.87px;"/>
                        </g>
                        <g transform="matrix(0.752896,0,0,1,59.5928,-5.12253)">
                            <path d="M159.411,120.155C159.411,120.155 160.575,117.884 165.222,116.722C169.869,115.561 172.562,117.62 172.562,117.62" style="fill:rgb(254,229,99);stroke:black;stroke-width:0.99px;"/>
                        </g>
                        <g transform="matrix(1,0,0,1,0.577604,-0.16503)">
                            <path d="M175.335,126.552C175.335,126.552 177.221,130.643 180.781,129.358C183.752,128.285 182.927,123.829 182.927,123.829" style="fill:none;stroke:black;stroke-width:0.87px;"/>
                        </g>
                    </g>
                    <g transform="matrix(3.44167,-1.14755,1.14755,3.44167,-380.716,462.364)">
                        <ellipse cx="244.04" cy="90.561" rx="4.126" ry="7.206" style="fill:white;stroke:black;stroke-width:0.87px;"/>
                    </g>
                    <g transform="matrix(3.44167,-1.14755,1.14755,3.44167,-333.317,451.747)">
                        <ellipse cx="244.04" cy="90.561" rx="4.126" ry="7.206" style="fill:white;stroke:black;stroke-width:0.87px;"/>
                    </g>
                    <g transform="matrix(3.62794,0,0,3.62794,-328.637,163.45)">
                        <ellipse cx="242.55" cy="88.557" rx="1.07" ry="2" style="stroke:black;stroke-width:0.87px;"/>
                    </g>
                    <g transform="matrix(3.62794,0,0,3.62794,-281.557,154.114)">
                        <ellipse cx="242.55" cy="88.557" rx="1.07" ry="2" style="stroke:black;stroke-width:0.87px;"/>
                    </g>
                    <g transform="matrix(3.62794,0,0,4.13739,-326.721,118.808)">
                        <path d="M251.087,103.352C251.087,103.352 260.989,103.258 263.876,99.174C263.876,99.174 266.844,95.642 267.548,99.233C268.252,102.824 261.764,105.723 256.976,106.708C252.188,107.694 249.498,107.833 249.371,105.863C249.216,103.457 251.087,103.352 251.087,103.352Z" style="stroke:black;stroke-width:0.81px;"/>
                    </g>
                    <g transform="matrix(3.62794,0,0,3.62794,-326.32,166.882)">
                        <path d="M258.503,106.113C258.503,106.113 263.274,104.743 270.916,107.193C276.686,109.043 276.747,104.159 275.299,103.363C273.915,102.601 270.431,99.953 258.503,106.113Z" style="fill:rgb(255,118,147);stroke:black;stroke-width:0.87px;"/>
                    </g>
                    <g transform="matrix(3.62794,0,0,3.62794,-326.721,168.623)">
                        <path d="M261.561,104.772C261.561,104.772 267.043,102.833 270.569,103.83" style="fill:none;stroke:black;stroke-width:0.87px;"/>
                    </g>
                    <g transform="matrix(3.62794,0,0,3.62794,-326.721,168.623)">
                        <path d="M252.284,104.118C252.284,104.118 252.286,106.134 254.132,105.876C255.978,105.617 255.311,103.738 255.311,103.738L252.284,104.118Z" style="fill:white;stroke:black;stroke-width:0.87px;"/>
                    </g>
                    <g transform="matrix(3.61078,-0.352464,0.352464,3.61078,-347.549,257.977)">
                        <path d="M252.284,104.118C252.284,104.118 252.286,106.134 254.132,105.876C255.978,105.617 255.311,103.738 255.311,103.738L252.284,104.118Z" style="fill:white;stroke:black;stroke-width:0.87px;"/>
                    </g>
                    <g transform="matrix(3.52045,-0.876587,0.876587,3.52045,-368.138,396.966)">
                        <path d="M252.284,104.118C252.284,104.118 252.286,106.134 254.132,105.876C255.978,105.617 255.311,103.738 255.311,103.738L252.284,104.118Z" style="fill:white;stroke:black;stroke-width:0.87px;"/>
                    </g>
                </g>
                <g transform="matrix(-2.05478,0,0,7.70541,818.392,-395.522)">
                    <g>
                        <g transform="matrix(0.861641,0,0,0.997444,51.6106,0.51247)">
                            <path d="M373.02,76.862L409.051,76.862L409.243,201.39L375.546,201.432L373.02,76.862Z" style="fill:rgb(138,227,242);stroke:black;stroke-width:0.75px;"/>
                        </g>
                        <g transform="matrix(0.963675,0,0,0.968917,11.4467,6.26184)">
                            <path d="M379.483,74.429C379.483,73.722 378.907,73.149 378.196,73.149L316.409,73.149C315.699,73.149 315.122,73.722 315.122,74.429L315.122,200.178C315.122,200.885 315.699,201.459 316.409,201.459L378.196,201.459C378.907,201.459 379.483,200.885 379.483,200.178L379.483,74.429Z" style="fill:rgb(255,118,147);stroke:black;stroke-width:0.73px;"/>
                        </g>
                        <g transform="matrix(1,0,0,1,-7.56383,-0.550097)">
                            <path d="M371.04,93.684C371.04,91.862 369.561,90.383 367.739,90.383L330.935,90.383C329.113,90.383 327.634,91.862 327.634,93.684L327.634,130.487C327.634,132.309 329.113,133.789 330.935,133.789L367.739,133.789C369.561,133.789 371.04,132.309 371.04,130.487L371.04,93.684Z" style="fill:rgb(254,229,99);stroke:black;stroke-width:0.7px;"/>
                        </g>
                        <g transform="matrix(1,0,0,1,0,-0.53409)">
                            <path d="M359.925,138.722L359.925,140.097L335.131,140.097L335.131,138.761L359.925,138.722Z" style="fill:rgb(173,20,76);stroke:black;stroke-width:0.7px;"/>
                        </g>
                        <circle cx="330.779" cy="103.25" r="0.748" style="stroke:black;stroke-width:0.7px;"/>
                        <g transform="matrix(1,0,0,1,18.6452,-0.394309)">
                            <circle cx="330.779" cy="103.25" r="0.748" style="stroke:black;stroke-width:0.7px;"/>
                        </g>
                        <g transform="matrix(1,0,0,1,0,0.968279)">
                            <path d="M338.015,106.811C338.015,106.811 338.241,108.557 339.818,108.332C341.395,108.106 341.451,106.754 341.451,106.754" style="fill:none;stroke:black;stroke-width:0.7px;"/>
                        </g>
                        <g transform="matrix(0.886091,0,0,1,39.4357,0)">
                            <path d="M347.613,146.823L351.698,146.912C351.698,146.912 352.856,147.323 352.842,149.053C352.822,151.532 350.757,151.048 347.604,151.163C344.45,151.278 347.613,146.823 347.613,146.823Z" style="fill:rgb(82,37,244);stroke:black;stroke-width:0.74px;"/>
                        </g>
                        <g transform="matrix(0.852868,0,0,1,60.5065,-0.0196887)">
                            <path d="M347.613,146.823L351.698,146.912C351.698,146.912 352.856,147.323 352.842,149.053C352.822,151.532 350.757,151.048 347.604,151.163C344.45,151.278 347.613,146.823 347.613,146.823Z" style="fill:rgb(82,37,244);stroke:black;stroke-width:0.75px;"/>
                        </g>
                        <g transform="matrix(1.20058,0,0,1.20058,-69.2909,-29.4473)">
                            <circle cx="347.279" cy="148.634" r="1.821" style="fill:rgb(138,227,242);stroke:black;stroke-width:0.58px;"/>
                        </g>
                        <g transform="matrix(1.20058,0,0,1.20058,-59.6003,-29.4858)">
                            <circle cx="347.279" cy="148.634" r="1.821" style="fill:rgb(138,227,242);stroke:black;stroke-width:0.58px;"/>
                        </g>
                        <path d="M342.625,147.972C342.625,147.415 342.173,146.963 341.616,146.963L323.292,146.963C322.735,146.963 322.283,147.415 322.283,147.972L322.283,149.991C322.283,150.548 322.735,151 323.292,151L341.616,151C342.173,151 342.625,150.548 342.625,149.991L342.625,147.972Z" style="fill:rgb(173,20,76);stroke:black;stroke-width:0.7px;"/>
                        <path d="M366.269,92.467L366.269,127.349" style="fill:none;stroke:black;stroke-width:0.7px;"/>
                        <path d="M338.813,87.293L359.259,87.293" style="fill:none;stroke:black;stroke-width:0.7px;"/>
                    </g>
                </g>
                <g transform="matrix(-1.76533,0,0,6.61997,4159.23,-365.361)">
                    <path d="M2231.22,162.555L2238.42,227.146L2267.07,227.571L2273.44,161.985L2231.22,162.555Z" style="fill:rgb(254,229,99);stroke:rgb(42,33,48);stroke-width:0.82px;"/>
                    <path d="M2254.99,188.932C2254.99,188.932 2253.79,193.102 2257.23,193.623" style="fill:none;stroke:rgb(42,33,48);stroke-width:0.82px;"/>
                    <g transform="matrix(1,0,0,-1,0,323.052)">
                        <path d="M2228.44,160.507L2229.53,163.496L2274.49,163.224L2275.99,159.557L2228.44,160.507Z" style="fill:rgb(138,227,242);stroke:rgb(42,33,48);stroke-width:0.82px;"/>
                    </g>
                    <path d="M2239.99,180.748C2239.99,180.748 2239.04,170.696 2244.2,170.56C2249.36,170.424 2246.65,181.427 2246.78,181.427C2246.92,181.427 2243.66,179.797 2239.99,180.748Z" style="fill:white;stroke:rgb(42,33,48);stroke-width:0.82px;"/>
                    <g transform="matrix(1,0,0,1,15.4034,1.09158)">
                        <path d="M2239.99,180.748C2239.99,180.748 2239.04,170.696 2244.2,170.56C2249.36,170.424 2246.65,181.427 2246.78,181.427C2246.92,181.427 2243.66,179.797 2239.99,180.748Z" style="fill:white;stroke:rgb(42,33,48);stroke-width:0.82px;"/>
                    </g>
                    <path d="M2254.24,182.619C2254.24,182.619 2259.09,178.115 2263.91,183.829" style="fill:rgb(254,229,99);stroke:rgb(42,33,48);stroke-width:0.82px;"/>
                    <g transform="matrix(1,0,0,1,-15.3584,-1.27524)">
                        <path d="M2254.24,182.619C2254.24,182.619 2259.09,178.115 2263.91,183.829" style="fill:rgb(254,229,99);stroke:rgb(42,33,48);stroke-width:0.82px;"/>
                    </g>
                    <path d="M2240.09,177.508C2240.09,177.508 2242.47,173.239 2247.13,176.344C2247.13,176.344 2248.02,170.633 2244.3,170.688C2240.59,170.744 2240.09,177.508 2240.09,177.508Z" style="fill:rgb(254,229,99);stroke:rgb(42,33,48);stroke-width:0.82px;"/>
                    <g transform="matrix(1,0,0,1,15.2396,0.950492)">
                        <path d="M2240.31,176.431C2240.31,176.431 2242.92,173.144 2247.57,176.249C2247.57,176.249 2248.02,170.633 2244.3,170.688C2240.59,170.744 2240.31,176.431 2240.31,176.431Z" style="fill:rgb(254,229,99);stroke:rgb(42,33,48);stroke-width:0.82px;"/>
                    </g>
                    <path d="M2241.95,176.074C2241.95,176.074 2243.53,178.546 2242.36,179.401C2241.19,180.257 2240.18,180.193 2240.18,180.193L2240.3,177.11L2241.95,176.074Z" style="fill:rgb(42,33,48);stroke:rgb(42,33,48);stroke-width:0.82px;"/>
                    <g transform="matrix(1,0,0,1,15.3566,0.811086)">
                        <path d="M2241.95,176.074C2241.95,176.074 2243.53,178.546 2242.36,179.401C2241.19,180.257 2240.18,180.193 2240.18,180.193L2240.3,177.11L2241.95,176.074Z" style="fill:rgb(42,33,48);stroke:rgb(42,33,48);stroke-width:0.82px;"/>
                    </g>
                    <path d="M2254.83,159.491L2260.14,145.812L2261.13,144.933L2260.68,143.697L2262.06,143.148L2261.67,141.438L2263.09,141.775L2263.25,140.423L2276.48,135.599L2277.15,137.543L2265.55,142.773L2264.54,142.505L2264.54,143.511L2263.81,143.511L2263.94,144.919L2262.8,144.718L2263.4,146.26L2262.53,145.925L2262.87,147.065L2258.44,159.403L2254.83,159.491Z" style="fill:rgb(138,227,242);stroke:rgb(42,33,48);stroke-width:0.82px;"/>
                    <path d="M2246.17,191.017C2246.17,191.017 2245.26,193.754 2254.84,191.359" style="fill:none;stroke:rgb(42,33,48);stroke-width:0.82px;"/>
                    <g transform="matrix(1,0,0,1,0.653665,0.163416)">
                        <path d="M2247.01,192.159C2247.01,192.159 2246.1,192.28 2244.92,194.232" style="fill:none;stroke:rgb(42,33,48);stroke-width:0.82px;"/>
                    </g>
                    <g transform="matrix(1,0,0,1,2.3423,0.13618)">
                        <path d="M2247.01,192.159C2247.01,192.159 2245.94,192.934 2246.2,195.267" style="fill:none;stroke:rgb(42,33,48);stroke-width:0.82px;"/>
                    </g>
                    <path d="M2267.44,192.44L2264.54,224.397" style="fill:none;stroke:rgb(42,33,48);stroke-width:0.82px;"/>
                </g>
                <g transform="matrix(0.8255,0,0,3.09562,-483.435,548.972)">
                    <path d="M862.96,71.809C862.724,72.011 861.242,73.159 861.006,73.344C860.54,73.71 865.297,81.476 864.851,81.809C861.608,84.232 859.276,86.318 863.138,95.9C867.798,107.464 874.174,199.827 913.873,200C953.572,200.173 1077.05,200 1077.05,200L1110.37,200C1110.37,200 1116.41,199.462 1111.57,197.564C1106.74,195.665 1090.17,192.731 1084.99,186.344C1079.81,179.958 1081.82,168.469 1058.35,166.225C1034.87,163.981 1021.24,163.579 1011.57,152.532C1001.9,141.485 993.562,137.458 982.86,136.077C972.159,134.696 964.219,124.8 961.457,116.86C958.696,108.921 910.404,88.595 904.19,77.03C901.51,72.042 894.67,67.149 888.148,67.874C887.128,67.987 884.988,62.719 883.089,61.526C882.629,61.236 880.807,62.536 880.484,62.708C879.815,63.064 882.921,69.225 882.213,69.529C876.213,72.103 871.416,76.353 868.246,79.089C868.019,79.284 863.163,71.636 862.96,71.809Z" style="fill:rgb(255,118,147);stroke:black;stroke-width:1.74px;"/>
                    <g transform="matrix(1,0,0,1,-0.259416,-1.40568)">
                        <circle cx="872.985" cy="89.941" r="1.016" style="stroke:black;stroke-width:1.74px;"/>
                    </g>
                    <g transform="matrix(1,0,0,1,16.7837,-14.0085)">
                        <circle cx="872.985" cy="89.941" r="1.016" style="stroke:black;stroke-width:1.74px;"/>
                    </g>
                    <g transform="matrix(1,0,0,1,-3.76457,-5.24868)">
                        <path d="M880.93,94.839C880.93,94.839 890.583,95.201 893.418,85.668" style="fill:none;stroke:black;stroke-width:1.74px;"/>
                    </g>
                </g>
                <g transform="matrix(-2.83387,-0.814892,-0.217305,10.627,2273.64,-624.377)">
                    <path d="M373.016,202.194C373.016,202.194 389.309,201.538 389.882,191.612C390.454,181.687 399.644,184.187 405.536,183.49C411.007,182.843 423.979,178.907 424.552,172.226C425.125,165.546 425.316,158.865 433.141,158.674C437.544,158.567 439.167,160.815 439.746,163.957C440.196,166.402 440.013,169.387 440.013,172.226C440.013,178.716 439.029,186.416 432.033,186.733C421.912,187.191 419.601,194.513 403.434,195.43C398.031,195.736 400.122,202.895 395.402,203.944C390.333,205.072 373.016,202.194 373.016,202.194Z" style="fill:rgb(138,227,242);stroke:black;stroke-width:0.51px;"/>
                    <g transform="matrix(1,0,0,0.759502,0,40.0499)">
                        <path d="M425.264,166.477C425.264,166.477 437.177,161.838 439.835,165.2L444.213,162.684C444.213,162.684 445.426,158.8 440.226,158.591C434.518,158.362 432.301,156.86 425.264,166.477Z" style="fill:rgb(255,118,147);stroke:black;stroke-width:0.57px;"/>
                    </g>
                    <circle cx="431.018" cy="168.992" r="0.55" style="stroke:black;stroke-width:0.51px;"/>
                    <g transform="matrix(1,0,0,1,6.21002,-0.122971)">
                        <circle cx="431.018" cy="168.992" r="0.55" style="stroke:black;stroke-width:0.51px;"/>
                    </g>
                    <g transform="matrix(1,0,0,1,1.10674,-0.122971)">
                        <path d="M432.623,173.658C432.623,173.658 432.848,175.38 434.037,175.318C435.226,175.257 435.164,173.494 435.164,173.494L432.623,173.658Z" style="stroke:black;stroke-width:0.51px;"/>
                    </g>
                    <path d="M416.042,180.53C415.65,184.743 416.449,188.402 419.074,191.248C419.074,191.248 425.564,187.704 428.169,187.277C425.245,183.683 424.212,178.765 424.136,173.805C424.136,173.805 422.148,177.883 416.042,180.53Z" style="stroke:black;stroke-width:0.51px;"/>
                </g>
                <g transform="matrix(2.11617,0,0,7.93563,-1023.9,-244.743)">
                    <g transform="matrix(-1,0,0,1.28147,1320.49,-51.5755)">
                        <path d="M662.599,133.821C662.599,129.653 658.263,126.27 652.923,126.27L633.57,126.27C628.23,126.27 623.894,129.653 623.894,133.821L623.894,203.544C623.894,207.712 628.23,211.095 633.57,211.095L652.923,211.095C658.263,211.095 662.599,207.712 662.599,203.544L662.599,133.821Z" style="fill:rgb(173,20,76);stroke:black;stroke-width:0.59px;"/>
                    </g>
                    <g transform="matrix(-1,0,0,1,1301.59,-0.352815)">
                        <circle cx="635.815" cy="134.885" r="5.488" style="fill:white;stroke:black;stroke-width:0.68px;"/>
                    </g>
                    <g transform="matrix(-0.491318,0,0,0.491318,975.459,68.4203)">
                        <circle cx="635.815" cy="134.885" r="5.488" style="stroke:black;stroke-width:1.39px;"/>
                    </g>
                    <g transform="matrix(-1,0,0,1,1311.64,-0.085485)">
                        <circle cx="635.815" cy="134.885" r="5.488" style="fill:white;stroke:black;stroke-width:0.68px;"/>
                    </g>
                    <g transform="matrix(-0.491318,0,0,0.491318,985.422,68.589)">
                        <circle cx="635.815" cy="134.885" r="5.488" style="stroke:black;stroke-width:1.39px;"/>
                    </g>
                    <g transform="matrix(-1,0,0,1,1322.5,2.93642)">
                        <circle cx="652.794" cy="148.453" r="1.408" style="stroke:black;stroke-width:0.68px;"/>
                    </g>
                    <g transform="matrix(1,0,0,1,-0.242752,0.28321)">
                        <path d="M660.294,141.298C660.294,141.298 662.039,138.377 665.567,138.188C669.019,138.002 670.308,140.691 670.308,140.691" style="fill:rgb(173,20,76);stroke:black;stroke-width:0.68px;"/>
                    </g>
                    <g transform="matrix(-1,1.22465e-16,-1.22465e-16,-1,1342.2,268.474)">
                        <path d="M660.294,141.298C660.294,141.298 662.039,138.377 665.567,138.188C669.019,138.002 670.308,140.691 670.308,140.691" style="fill:rgb(173,20,76);stroke:black;stroke-width:0.68px;"/>
                    </g>
                    <g transform="matrix(1,0,0,1,11.0756,-0.03793)">
                        <path d="M660.294,141.298C660.294,141.298 662.039,138.377 665.567,138.188C669.019,138.002 670.308,140.691 670.308,140.691" style="fill:rgb(173,20,76);stroke:black;stroke-width:0.68px;"/>
                    </g>
                    <g transform="matrix(-1,1.22465e-16,-1.22465e-16,-1,1330.89,268.795)">
                        <path d="M660.294,141.298C660.294,141.298 662.039,138.377 665.567,138.188C669.019,138.002 670.308,140.691 670.308,140.691" style="fill:rgb(173,20,76);stroke:black;stroke-width:0.68px;"/>
                    </g>
                </g>
                <g transform="matrix(2.11617,0,0,7.93563,-1025.46,-243.147)">
                    <g transform="matrix(1,0,0,1.28147,-8.13889,-51.4597)">
                        <path d="M662.599,133.821C662.599,129.653 658.263,126.27 652.923,126.27L633.57,126.27C628.23,126.27 623.894,129.653 623.894,133.821L623.894,203.544C623.894,207.712 628.23,211.095 633.57,211.095L652.923,211.095C658.263,211.095 662.599,207.712 662.599,203.544L662.599,133.821Z" style="fill:rgb(82,37,244);stroke:black;stroke-width:0.59px;"/>
                    </g>
                    <g transform="matrix(1,0,0,1,10.7626,-0.237062)">
                        <circle cx="635.815" cy="134.885" r="5.488" style="fill:white;stroke:black;stroke-width:0.68px;"/>
                    </g>
                    <g transform="matrix(0.491318,0,0,0.491318,336.891,68.536)">
                        <circle cx="635.815" cy="134.885" r="5.488" style="stroke:black;stroke-width:1.39px;"/>
                    </g>
                    <g transform="matrix(1,0,0,1,0.70785,0.0302681)">
                        <circle cx="635.815" cy="134.885" r="5.488" style="fill:white;stroke:black;stroke-width:0.68px;"/>
                    </g>
                    <g transform="matrix(1,0,0.0187835,0.800566,8.36244,25.7892)">
                        <path d="M635.815,129.397C638.843,129.397 641.303,131.856 641.303,134.885C641.303,137.914 630.327,137.914 630.327,134.885C630.327,131.856 632.786,129.397 635.815,129.397Z" style="fill:rgb(82,37,244);stroke:black;stroke-width:0.74px;"/>
                    </g>
                    <g transform="matrix(0.491318,0,0,0.491318,326.927,68.7047)">
                        <circle cx="635.815" cy="134.885" r="5.488" style="stroke:black;stroke-width:1.39px;"/>
                    </g>
                    <g transform="matrix(1,0,0.0187835,0.800566,-1.69235,25.7455)">
                        <path d="M635.815,129.397C638.843,129.397 641.303,131.856 641.303,134.885C641.303,137.914 630.327,137.914 630.327,134.885C630.327,131.856 632.786,129.397 635.815,129.397Z" style="fill:rgb(82,37,244);stroke:black;stroke-width:0.74px;"/>
                    </g>
                    <g transform="matrix(1,0,0,1,-10.1492,3.05218)">
                        <circle cx="652.794" cy="148.453" r="1.408" style="stroke:black;stroke-width:0.68px;"/>
                    </g>
                    <path d="M618.522,119.76C618.522,119.76 618.522,113.766 625.715,113.317" style="fill:none;stroke:black;stroke-width:0.68px;"/>
                </g>
                <g transform="matrix(2.85089,0,0,4.57523,97.9358,-3421.45)">
                    <g transform="matrix(0.959575,0,0,2.24222,-480.222,535.825)">
                        <g transform="matrix(0.774973,0.631994,-0.631994,0.774973,266.201,-365.488)">
                            <path d="M667.335,131.705C667.335,131.705 655.892,191.448 622.664,201.021L625.623,202.516C625.623,202.516 689.67,203.661 670.305,131.705L667.335,131.705Z" style="fill:rgb(255,200,31);stroke:black;stroke-width:0.53px;"/>
                        </g>
                        <path d="M701.81,160.013C701.81,160.013 657.044,204.3 622.681,185.598" style="fill:none;stroke:black;stroke-width:0.53px;"/>
                        <g transform="matrix(0.716965,0.69711,-0.69711,0.716965,311.356,-431.75)">
                            <ellipse cx="685.615" cy="168.998" rx="2.507" ry="3.408" style="fill:white;stroke:black;stroke-width:0.53px;"/>
                        </g>
                        <g transform="matrix(1,0,0,1,-0.737186,-0.472555)">
                            <circle cx="684.764" cy="166.727" r="0.328" style="fill:rgb(42,33,48);stroke:black;stroke-width:0.53px;"/>
                        </g>
                        <g transform="matrix(0.716965,0.69711,-0.69711,0.716965,314.624,-429.327)">
                            <ellipse cx="685.615" cy="168.998" rx="2.507" ry="3.408" style="fill:white;stroke:black;stroke-width:0.53px;"/>
                        </g>
                        <g transform="matrix(1,0,0,1,2.41948,2.09814)">
                            <circle cx="684.764" cy="166.727" r="0.328" style="fill:rgb(42,33,48);stroke:black;stroke-width:0.53px;"/>
                        </g>
                        <g transform="matrix(1,0,0,1,-3.92875,7.21624)">
                            <circle cx="684.764" cy="166.727" r="0.328" style="fill:rgb(42,33,48);stroke:black;stroke-width:0.53px;"/>
                        </g>
                    </g>
                    <g transform="matrix(0.959575,0,0,2.24222,-480.222,535.825)">
                        <path d="M641.862,194.665C641.862,194.665 665.753,204.333 685.589,182.664" style="fill:none;stroke:black;stroke-width:0.53px;"/>
                    </g>
                </g>
                <g transform="matrix(1.46901,5.36166,-1.42978,5.50877,-394.079,-4080.98)">
                    <g transform="matrix(0.825862,0,0,0.825862,104.002,13.6377)">
                        <circle cx="732.534" cy="124.945" r="23.2" style="fill:rgb(138,227,242);stroke:black;stroke-width:0.85px;"/>
                    </g>
                    <g transform="matrix(1,0,0,1,4.48287,-1.42271)">
                        <circle cx="703.82" cy="112.12" r="0.778" style="stroke:black;stroke-width:0.7px;"/>
                    </g>
                    <g transform="matrix(1,0,0,1,9.15365,-1.61061)">
                        <circle cx="703.82" cy="112.12" r="0.778" style="stroke:black;stroke-width:0.7px;"/>
                    </g>
                    <g transform="matrix(1,0,0,1,0.41943,-0.0524288)">
                        <path d="M709.28,112.335C709.28,112.335 710.757,113.194 711.723,112.335" style="fill:none;stroke:black;stroke-width:0.7px;"/>
                    </g>
                </g>
                <g transform="matrix(-1.99924,0,0,7.49716,3090.87,-871.429)">
                    <g transform="matrix(0.977873,-0.2092,0.251586,1.176,-17.1458,245.681)">
                        <path d="M1360.52,186.389C1360.52,178.872 1353.29,172.779 1344.37,172.779C1335.46,172.779 1328.23,178.872 1328.23,186.389L1360.52,186.389Z" style="fill:rgb(138,227,242);stroke:rgb(29,23,3);stroke-width:0.65px;"/>
                    </g>
                    <path d="M1337.52,171.764L1328.62,178.893C1328.62,178.893 1327.57,169.457 1329.94,168.218C1333.84,166.187 1349.64,155.07 1352.02,166.707C1347.29,166.659 1342.47,168.042 1337.52,171.764Z" style="fill:rgb(255,118,147);stroke:rgb(29,23,3);stroke-width:0.72px;"/>
                    <g transform="matrix(1,0,0.348207,1,-59.8099,-0.891044)">
                        <ellipse cx="1343.34" cy="172.767" rx="1.074" ry="1.22" style="fill:rgb(29,23,3);stroke:rgb(29,23,3);stroke-width:0.61px;"/>
                    </g>
                    <g transform="matrix(0.820656,0,0.285758,0.820656,197.866,28.6706)">
                        <ellipse cx="1343.34" cy="172.767" rx="1.074" ry="1.22" style="fill:rgb(29,23,3);stroke:rgb(29,23,3);stroke-width:0.74px;"/>
                    </g>
                    <g transform="matrix(1,0,0,1,5.42783,-0.748666)">
                        <path d="M1334.07,185.994L1336.81,193.154L1332.63,200.749" style="fill:none;stroke:rgb(29,23,3);stroke-width:0.72px;"/>
                    </g>
                    <g transform="matrix(1,0,0,1,18.9019,-1.40778)">
                        <path d="M1332.99,183.748L1336.3,191.657L1333.66,201.408" style="fill:none;stroke:rgb(29,23,3);stroke-width:0.72px;"/>
                    </g>
                    <g transform="matrix(1,0,0.512,1,-90.7513,0.633637)">
                        <circle cx="1351.57" cy="174.613" r="0.731" style="fill:rgb(29,23,3);stroke:rgb(29,23,3);stroke-width:0.56px;"/>
                    </g>
                    <path d="M1341.17,164.209L1337.33,171.886C1337.33,171.886 1345.13,165.428 1352.2,169.388L1356.22,162.991C1356.22,162.991 1352.2,156.167 1341.17,164.209Z" style="fill:rgb(173,20,76);stroke:rgb(29,23,3);stroke-width:0.72px;"/>
                </g>
                <g transform="matrix(-1.97485,0.926967,0.247191,7.40568,4068.14,-2011.36)">
                    <g transform="matrix(0.992257,-0.124201,0.124201,0.992257,-532.577,173.024)">
                        <path d="M2102.01,207.401C2101.15,207.86 2100.65,208.349 2100.72,209.117L2103.93,209.094L2102.01,207.401Z" style="fill:rgb(82,37,244);stroke:black;stroke-width:0.72px;"/>
                    </g>
                    <g transform="matrix(0.779867,0.312982,-0.372453,0.928051,386.009,-486.896)">
                        <path d="M1575.5,106.404C1575.5,106.404 1583.76,110.115 1590.64,105.045C1591.29,104.566 1590.33,104.489 1592.12,103.13C1593.92,101.77 1595.14,105.615 1593.53,106.356C1591.92,107.098 1589.47,112.398 1575.01,109.123C1560.55,105.848 1575.5,106.404 1575.5,106.404Z" style="fill:rgb(82,37,244);stroke:black;stroke-width:0.78px;"/>
                    </g>
                    <path d="M1539.68,118.395C1539.68,118.395 1538.57,120.581 1540.63,123.675C1540.63,123.675 1541.22,125.452 1541.44,126.63C1541.44,126.63 1541.57,124.63 1542.11,124.297C1542.56,124.029 1544.23,123.778 1544.08,123.447C1543.93,123.116 1542.15,122.619 1542.15,122.619C1542.15,122.619 1539.46,119.132 1540.94,117.953C1542.41,116.775 1539.68,118.395 1539.68,118.395Z" style="fill:rgb(82,37,244);stroke:black;stroke-width:0.72px;"/>
                    <path d="M1535.3,110.286C1532.86,121.7 1533.11,121.029 1533.81,128.564C1534.51,136.1 1536.65,137.625 1544.34,136.563C1552.04,135.502 1549.59,129.015 1542.97,129.127C1537.09,129.226 1543.16,133.753 1542.76,132.933C1540.03,127.377 1553.61,134.515 1541.17,134.436C1533.88,134.39 1538.9,119.389 1541.3,119.263C1543.7,119.137 1546.17,117.872 1546.17,117.872C1546.17,117.872 1553.85,120.149 1551.64,120.781C1549.43,121.413 1549.29,122.895 1550.23,122.845C1551.48,122.78 1552.07,122.276 1552.96,122.655C1553.84,123.034 1554.7,124.905 1555.14,124.02C1555.59,123.135 1554.36,121.097 1554.36,121.097L1554.07,118.82L1548.07,114.901C1565.64,115.912 1570.76,110.855 1570.76,110.855C1570.76,110.855 1572.26,112.68 1574.23,114.083C1575.47,114.962 1577.73,116.398 1578.41,116.861C1580.18,118.062 1580.13,117.742 1582.12,120.11C1584.06,122.405 1586.43,119.382 1584.66,117.548C1582.89,115.715 1581.26,113.594 1579.17,112.688C1577.11,111.792 1577.08,111.676 1575.44,109.59C1573.03,106.53 1572.03,106.303 1582.46,105.67C1583.84,105.586 1585.52,105.142 1587.23,104.459C1587.99,104.157 1593.11,101.301 1593.86,100.915C1594.81,100.425 1583.06,100.609 1583.06,100.609L1592.85,96.043C1592.85,96.043 1589.67,95.369 1589.76,94.449C1589.79,94.017 1595.48,88.788 1595.54,88.36C1595.61,87.862 1588.59,93.209 1588.8,92.672C1589.83,90.02 1593.38,87.367 1593.38,87.367C1593.38,87.367 1590.03,88.232 1586.94,89.29C1584.66,90.071 1582.08,90.712 1579.95,90.579C1567.76,89.815 1560.88,93.194 1555.76,94.306C1543.73,96.919 1537.7,99.032 1535.3,110.286Z" style="fill:rgb(82,37,244);stroke:black;stroke-width:0.72px;"/>
                    <g transform="matrix(1.5418,0,0,1.5418,-858.214,-53.8536)">
                        <circle cx="1580.75" cy="97.685" r="1.631" style="fill:white;stroke:rgb(42,33,48);stroke-width:0.47px;"/>
                    </g>
                    <g transform="matrix(0.281484,0,0,0.281484,1134.38,69.0007)">
                        <circle cx="1580.75" cy="97.685" r="1.631" style="stroke:black;stroke-width:2.57px;"/>
                    </g>
                    <g transform="matrix(0.933452,0,0,0.81033,105.598,17.8125)">
                        <path d="M1589.28,92.174C1589.28,92.174 1587.83,93.388 1587.47,93.704C1586.91,94.177 1586.62,95.637 1588.2,95.358C1589.77,95.079 1589.93,94.59 1589.93,94.59" style="fill:none;stroke:rgb(42,33,48);stroke-width:0.83px;"/>
                    </g>
                    <path d="M1586.53,89.902C1586.53,89.902 1586.92,91.371 1589.12,91.597" style="fill:none;stroke:rgb(42,33,48);stroke-width:0.72px;"/>
                    <g transform="matrix(1,0,0,1,-1.96187,0.781073)">
                        <path d="M1585.1,99.782L1633.06,87.558C1633.06,87.558 1633.39,86.318 1633.88,86.814C1634.38,87.31 1634.3,89.211 1633.55,88.88C1632.81,88.55 1590.16,99.745 1590.16,99.745L1585.1,99.782Z" style="fill:rgb(255,118,147);stroke:rgb(42,33,48);stroke-width:0.72px;"/>
                    </g>
                    <path d="M1576.18,90.377L1570.59,89.424" style="fill:none;stroke:rgb(42,33,48);stroke-width:0.72px;"/>
                    <g transform="matrix(1,0,0,1,-6.84576,0.693242)">
                        <path d="M1576.01,90.247L1569.2,89.814" style="fill:none;stroke:rgb(42,33,48);stroke-width:0.72px;"/>
                    </g>
                    <g transform="matrix(1,0,0,1,-15.5979,2.25304)">
                        <path d="M1577.91,90.117L1572.45,90.291" style="fill:none;stroke:rgb(42,33,48);stroke-width:0.72px;"/>
                    </g>
                    <g transform="matrix(1,0,0,1,-22.5304,4.20278)">
                        <path d="M1577.91,90.117L1572.45,90.291" style="fill:none;stroke:rgb(42,33,48);stroke-width:0.72px;"/>
                    </g>
                    <g transform="matrix(1,0,0,1,-28.8562,5.8059)">
                        <path d="M1577.91,90.117L1572.45,90.291" style="fill:none;stroke:rgb(42,33,48);stroke-width:0.72px;"/>
                    </g>
                    <g transform="matrix(1,0,0,1,-34.2288,7.88563)">
                        <path d="M1577.91,90.117L1573.02,91.504" style="fill:none;stroke:rgb(42,33,48);stroke-width:0.72px;"/>
                    </g>
                    <g transform="matrix(1,0,0,1,-38.3016,10.8752)">
                        <path d="M1577.91,90.117L1573.75,92.717" style="fill:none;stroke:rgb(42,33,48);stroke-width:0.72px;"/>
                    </g>
                    <g transform="matrix(1,0,0,1,-41.2912,15.338)">
                        <path d="M1577.91,90.117L1575.1,93.8" style="fill:none;stroke:rgb(42,33,48);stroke-width:0.72px;"/>
                    </g>
                    <g transform="matrix(1,0,0,1,-42.6777,21.1005)">
                        <path d="M1577.64,90.803L1576.09,93.107" style="fill:none;stroke:rgb(42,33,48);stroke-width:0.72px;"/>
                    </g>
                    <g transform="matrix(1,0,0,1,-43.8327,26.8239)">
                        <path d="M1577.64,90.803L1576.09,93.107" style="fill:none;stroke:rgb(42,33,48);stroke-width:0.72px;"/>
                    </g>
                    <g transform="matrix(1,0,0,1,-44.2268,34.6764)">
                        <path d="M1577.64,90.803L1576.67,93.776" style="fill:none;stroke:rgb(42,33,48);stroke-width:0.72px;"/>
                    </g>
                    <g transform="matrix(1,0,0,1,-43.2349,41.4728)">
                        <path d="M1577.64,90.803L1577.62,93.48" style="fill:none;stroke:rgb(42,33,48);stroke-width:0.72px;"/>
                    </g>
                    <g transform="matrix(1,0,0,1,-40.9615,45.5312)">
                        <path d="M1577.63,90.451L1579.52,92.255" style="fill:none;stroke:rgb(42,33,48);stroke-width:0.72px;"/>
                    </g>
                </g>
            </g>
        </g>
    </g>
</svg>
