<?xml version="1.0" encoding="UTF-8" standalone="no"?>
<!DOCTYPE svg PUBLIC "-//W3C//DTD SVG 1.1//EN" "http://www.w3.org/Graphics/SVG/1.1/DTD/svg11.dtd">
<svg width="100%" height="100%" viewBox="0 0 370 338" version="1.1" xmlns="http://www.w3.org/2000/svg" xmlns:xlink="http://www.w3.org/1999/xlink" xml:space="preserve" xmlns:serif="http://www.serif.com/" style="fill-rule:evenodd;clip-rule:evenodd;stroke-linecap:round;stroke-linejoin:round;stroke-miterlimit:1.5;">
    <g transform="matrix(1,0,0,1,-3066,-167)">
        <g transform="matrix(3.95957,0,0,1.69453,1216.62,0)">
            <g transform="matrix(6.68317,0,0,6.68317,-3504.63,-1370.54)">
                <g transform="matrix(1.57406e-17,0.600673,-0.266257,3.80961e-17,621.826,-664.928)">
                    <rect x="1473.15" y="51.27" width="11.283" height="51.981" style="fill:rgb(254,229,99);stroke:black;stroke-width:0.29px;"/>
                </g>
                <g transform="matrix(1.58138e-17,0.603466,-0.135012,1.93176e-17,611.933,-646.355)">
                    <rect x="1473.15" y="51.27" width="11.283" height="51.981" style="fill:rgb(255,118,147);stroke:black;stroke-width:0.37px;"/>
                </g>
                <g transform="matrix(0.191185,0.055918,-0.0239306,0.446737,302.174,113.577)">
                    <circle cx="1580.75" cy="97.685" r="1.631" style="fill:white;stroke:black;stroke-width:0.39px;"/>
                </g>
                <g transform="matrix(0.0537592,0.0157236,-0.00672903,0.125618,517.605,208.2)">
                    <circle cx="1580.75" cy="97.685" r="1.631" style="stroke:black;stroke-width:1.39px;"/>
                </g>
                <g transform="matrix(0.191185,0.055918,-0.0239306,0.446737,304.092,113.489)">
                    <circle cx="1580.75" cy="97.685" r="1.631" style="fill:white;stroke:black;stroke-width:0.39px;"/>
                </g>
                <g transform="matrix(0.0537592,0.0157236,-0.00672903,0.125618,519.511,208.173)">
                    <circle cx="1580.75" cy="97.685" r="1.631" style="stroke:black;stroke-width:1.39px;"/>
                </g>
                <g transform="matrix(-0.258258,-7.39033e-17,2.29305e-17,-0.437522,981.348,271.931)">
                    <rect x="1473.15" y="51.27" width="11.283" height="51.981" style="fill:rgb(82,37,244);stroke:black;stroke-width:0.34px;"/>
                </g>
                <g transform="matrix(0.188564,0,0,0.590134,321.969,200.678)">
                    <path d="M1468,37.61C1468,37.61 1467.3,35.719 1471.18,35.699C1473.51,35.687 1473.28,37.522 1473.28,37.522" style="fill:none;stroke:black;stroke-width:0.34px;"/>
                </g>
                <g transform="matrix(0.188564,0,0,0.590134,326.132,200.469)">
                    <path d="M1468,37.61C1468,37.61 1467.3,35.719 1471.18,35.699C1473.51,35.687 1473.28,37.522 1473.28,37.522" style="fill:none;stroke:black;stroke-width:0.34px;"/>
                </g>
                <g transform="matrix(-0.188564,-5.39594e-17,3.09288e-17,-0.590134,878.65,246.385)">
                    <path d="M1468,37.61C1468,37.61 1467.3,35.719 1471.18,35.699C1473.51,35.687 1473.28,37.522 1473.28,37.522" style="fill:none;stroke:black;stroke-width:0.34px;"/>
                </g>
                <g transform="matrix(0.252553,0,0,0.590134,227.12,189.9)">
                    <circle cx="1471.88" cy="67.122" r="2.106" style="fill:rgb(244,244,244);stroke:black;stroke-width:0.3px;"/>
                </g>
                <g transform="matrix(0.252553,0,0,0.590134,228.4,189.878)">
                    <circle cx="1471.88" cy="67.122" r="2.106" style="fill:rgb(244,244,244);stroke:black;stroke-width:0.3px;"/>
                </g>
                <g transform="matrix(0.08054,0,0,0.188196,481.712,216.326)">
                    <circle cx="1471.88" cy="67.122" r="2.106" style="stroke:black;stroke-width:0.94px;"/>
                </g>
                <g transform="matrix(0.08054,0,0,0.188196,480.435,216.254)">
                    <circle cx="1471.88" cy="67.122" r="2.106" style="stroke:black;stroke-width:0.94px;"/>
                </g>
                <g transform="matrix(0.08054,0,0,0.188196,480.993,219.321)">
                    <circle cx="1471.88" cy="67.122" r="2.106" style="stroke:black;stroke-width:0.94px;"/>
                </g>
                <g transform="matrix(0.362425,0,0,0.799325,62.8511,180.995)">
                    <rect x="1484.61" y="57.251" width="20.117" height="20.117" style="fill:rgb(138,227,242);stroke:black;stroke-width:0.21px;"/>
                </g>
                <g transform="matrix(0.252553,0,0,0.590134,227.535,191.095)">
                    <circle cx="1485.97" cy="67.887" r="0.921" style="stroke:black;stroke-width:0.3px;"/>
                </g>
                <g transform="matrix(0.252553,0,0,0.590134,231.163,191.154)">
                    <circle cx="1485.97" cy="67.887" r="0.921" style="stroke:black;stroke-width:0.3px;"/>
                </g>
                <g transform="matrix(0.252553,0,0,0.590134,227.525,190.588)">
                    <path d="M1485.82,73.481C1485.82,73.481 1487.21,73.574 1487.1,72.373" style="fill:none;stroke:black;stroke-width:0.3px;"/>
                </g>
                <g transform="matrix(0.0427485,0.581619,-0.248909,0.0998895,560.851,-638.137)">
                    <path d="M1485.82,73.481C1485.82,73.481 1487.21,73.574 1487.1,72.373" style="fill:none;stroke:black;stroke-width:0.3px;"/>
                </g>
                <g transform="matrix(0.252553,0,0,0.590134,227.525,190.588)">
                    <path d="M1487.04,73.408C1487.04,73.408 1494.4,77.285 1499.2,73.408" style="fill:none;stroke:black;stroke-width:0.3px;"/>
                </g>
            </g>
        </g>
    </g>
</svg>
