<?xml version="1.0" encoding="UTF-8" standalone="no"?>
<!DOCTYPE svg PUBLIC "-//W3C//DTD SVG 1.1//EN" "http://www.w3.org/Graphics/SVG/1.1/DTD/svg11.dtd">
<svg width="100%" height="100%" viewBox="0 0 378 378" version="1.1" xmlns="http://www.w3.org/2000/svg" xmlns:xlink="http://www.w3.org/1999/xlink" xml:space="preserve" xmlns:serif="http://www.serif.com/" style="fill-rule:evenodd;clip-rule:evenodd;stroke-linecap:round;stroke-linejoin:round;stroke-miterlimit:1.5;">
    <g transform="matrix(1,0,0,1,-3040,-864)">
        <g transform="matrix(3.95957,0,0,1.69453,1216.62,0)">
            <g transform="matrix(0.902463,0,0,2.10876,455.016,403.099)">
                <g transform="matrix(0.981177,0,0,0.981177,0.301566,-42.9688)">
                    <circle cx="59.722" cy="149.344" r="53.511" style="fill:rgb(254,229,99);stroke:black;stroke-width:0.57px;"/>
                </g>
                <g transform="matrix(1,0,0,1.50842,7.09755,-100.435)">
                    <circle cx="43.194" cy="123.869" r="9.603" style="fill:rgb(244,244,244);stroke:black;stroke-width:0.44px;"/>
                </g>
                <g transform="matrix(1.28278,-0.0964339,0.0964339,1.28278,-16.0737,-56.559)">
                    <circle cx="43.194" cy="123.869" r="9.603" style="stroke:black;stroke-width:0.44px;"/>
                </g>
                <g transform="matrix(1,0,0,1.55138,36.5278,-107.442)">
                    <circle cx="43.194" cy="123.869" r="9.603" style="fill:rgb(244,244,244);stroke:black;stroke-width:0.43px;"/>
                </g>
                <g transform="matrix(1.28278,-0.0964339,0.0964339,1.28278,21.5563,-61.0289)">
                    <circle cx="43.194" cy="123.869" r="9.603" style="stroke:black;stroke-width:0.44px;"/>
                </g>
                <path d="M67.368,98.467C67.368,98.467 78.634,105.773 92.541,104.893C92.541,104.893 95.184,104.154 95.357,107.797C95.511,111.036 86.644,111.846 76.786,112.022" style="fill:rgb(254,229,99);stroke:black;stroke-width:0.56px;"/>
                <g transform="matrix(0.997186,-0.0749639,0.0749639,0.997186,-6.99461,5.52456)">
                    <rect x="61.515" y="95.481" width="17.493" height="3.411" style="stroke:black;stroke-width:0.56px;"/>
                </g>
                <g transform="matrix(1.36104,0,0,1.36104,-17.2419,-33.4654)">
                    <ellipse cx="50.238" cy="86.955" rx="2.365" ry="5.226" style="stroke:black;stroke-width:0.41px;"/>
                </g>
                <g transform="matrix(1.29698,0,0,1.29698,15.6885,-28.9687)">
                    <ellipse cx="50.238" cy="86.955" rx="2.365" ry="5.226" style="stroke:black;stroke-width:0.43px;"/>
                </g>
                <g transform="matrix(1.36104,0,0,1.36104,-19.0388,-31.968)">
                    <circle cx="49.779" cy="82.696" r="1.141" style="fill:rgb(244,244,244);"/>
                </g>
                <g transform="matrix(1.29698,0,0,1.29698,13.5516,-28.0532)">
                    <circle cx="49.779" cy="82.696" r="1.141" style="fill:rgb(244,244,244);"/>
                </g>
                <g transform="matrix(1,0,0,1,6.01669,-0.859528)">
                    <path d="M36.222,123.469C36.222,123.469 53.687,129.08 75.587,128.794C75.587,128.794 78.378,128.488 78.819,131.921C79.259,135.353 51.718,140.687 36.222,123.469Z" style="fill:rgb(244,244,244);stroke:black;stroke-width:0.56px;"/>
                </g>
                <path d="M48.685,91.311C48.685,91.311 43.615,91.381 43.474,97.436" style="fill:none;stroke:rgb(244,244,244);stroke-width:0.56px;"/>
                <g transform="matrix(1,0,0,1,37.6003,-4.85846)">
                    <path d="M48.685,91.311C48.685,91.311 43.615,91.381 43.474,97.436" style="fill:none;stroke:rgb(244,244,244);stroke-width:0.56px;"/>
                </g>
            </g>
        </g>
    </g>
</svg>
