<?xml version="1.0" encoding="UTF-8" standalone="no"?>
<!DOCTYPE svg PUBLIC "-//W3C//DTD SVG 1.1//EN" "http://www.w3.org/Graphics/SVG/1.1/DTD/svg11.dtd">
<svg width="100%" height="100%" viewBox="0 0 364 654" version="1.1" xmlns="http://www.w3.org/2000/svg" xmlns:xlink="http://www.w3.org/1999/xlink" xml:space="preserve" xmlns:serif="http://www.serif.com/" style="fill-rule:evenodd;clip-rule:evenodd;stroke-linecap:round;stroke-linejoin:round;stroke-miterlimit:1.5;">
    <g transform="matrix(1,0,0,1,-4864,-104)">
        <g transform="matrix(3.95957,0,0,1.69453,1216.62,0)">
            <g transform="matrix(1.20031,0,0,2.80473,-1296.3,-913.079)">
                <path d="M1922.08,375.53C1922.08,375.53 1913.99,384.677 1910.17,418.536C1906.36,452.395 1900.83,461.622 1899.46,464.167C1898.09,466.711 1899.7,451.747 1896.17,460.915C1889.91,477.159 1880.35,489.7 1881.5,477.544C1882.76,464.275 1875.82,486.352 1873.96,484.688C1872.11,483.024 1874.36,484.003 1874.36,484.003L1888.84,398.866L1918.2,374.5L1922.08,375.53Z" style="fill:rgb(255,200,31);stroke:black;stroke-width:0.42px;"/>
                <path d="M1851.13,384.423C1853.24,393.636 1859.47,408.648 1864.58,426.651C1865.41,429.605 1865.7,435.546 1865.98,438.726C1867.38,454.715 1868.7,443.276 1869.41,447.168C1871.03,456.082 1872.04,465.396 1871.95,474.855C1871.95,474.855 1871.86,490.138 1874.68,482.421C1877.49,474.704 1881.66,468.335 1881.17,477.767C1880.68,487.198 1886.07,479.727 1889.01,471.52C1889.69,469.608 1892.47,480.774 1892.08,470.121C1891.88,464.945 1893.61,472.2 1893.06,465.058C1893.02,464.591 1893.6,462.254 1893.85,461.9C1896.34,458.349 1898.66,457.151 1898.81,462.456C1898.9,466.088 1899.61,466.333 1900.78,461.647C1900.91,461.096 1901.95,463.651 1902.04,469.204C1902.15,476.219 1904.42,469.186 1904.6,467.823C1905.72,459.219 1904.6,460.74 1904.53,453.049C1904.49,449.383 1903.95,445.467 1904.69,441.798C1904.97,440.377 1906.48,444.496 1906.67,443.201C1908,433.911 1906.14,434.568 1906.4,433.303C1907.02,430.299 1907.49,426.008 1908,421.1C1908.2,419.193 1909.4,423.918 1909.62,421.864C1909.79,420.327 1908.97,412.034 1909.16,410.452C1909.37,408.778 1909.59,407.088 1909.83,405.402C1911.07,396.857 1912.9,388.41 1916.08,382.593C1919.04,377.173 1920.4,373.954 1920.82,371.83C1921.42,368.77 1920.07,367.987 1918.77,366.179C1916.57,363.117 1863.61,364.759 1849.08,374.753C1845.16,377.448 1850.4,381.211 1851.13,384.423Z" style="fill:rgb(254,229,99);stroke:black;stroke-width:0.42px;"/>
                <g transform="matrix(-0.570591,-0.556874,0.698453,-0.715656,2674.31,1752.69)">
                    <circle cx="1898.71" cy="433.216" r="4.001" style="fill:rgb(173,20,76);stroke:black;stroke-width:0.47px;"/>
                </g>
                <path d="M1881.19,415.454C1881.19,415.454 1880.79,420.043 1881.89,420.407C1882.98,420.771 1885.45,420.189 1885.45,420.189C1885.45,420.189 1886.58,415.964 1885.45,415.308C1884.33,414.653 1881.19,415.454 1881.19,415.454Z" style="stroke:black;stroke-width:0.42px;"/>
                <path d="M1885.16,415.126C1884.03,413.456 1881.57,412.711 1878.06,412.686L1878.39,415.09L1885.16,415.126Z" style="fill:white;stroke:black;stroke-width:0.42px;"/>
                <g transform="matrix(0.210407,0,0,0.210407,823.986,325.549)">
                    <path d="M5043.47,425.732C5043.47,425.732 5038.99,414.262 5009.71,414.134" style="fill:none;stroke:black;stroke-width:2px;"/>
                </g>
                <path d="M1918.49,377.337C1918.49,377.337 1922.6,378.12 1923.58,371.368C1924.56,364.616 1920.25,365.986 1914.77,365.203" style="fill:rgb(255,200,31);stroke:black;stroke-width:0.42px;"/>
                <g>
                    <g transform="matrix(1,0,0,1,5.57161,-12.2045)">
                        <path d="M1890.79,361.292C1890.79,361.292 1891.93,359.635 1892.97,360.105C1894,360.575 1896.68,361.229 1895.36,362.548C1894.66,363.252 1890.79,361.292 1890.79,361.292Z" style="fill:rgb(138,227,242);stroke:black;stroke-width:0.42px;"/>
                    </g>
                    <g transform="matrix(1,0,0,1,5.57161,-12.2045)">
                        <path d="M1873.73,366.474C1873.73,366.474 1879.35,357.557 1892.34,361.63C1905.33,365.704 1906.32,369.006 1905,377.594C1903.62,386.567 1873.95,367.135 1873.95,367.135" style="fill:rgb(173,20,76);stroke:black;stroke-width:0.42px;"/>
                    </g>
                    <g transform="matrix(1,0,0,0.699882,5.87091,102.505)">
                        <path d="M1858.37,381.054C1858.37,381.054 1857.43,381.16 1848.66,374.07C1837.53,365.075 1848.67,360.608 1855.91,356.801C1868.67,350.083 1877.4,357.302 1895.42,374.458C1883.98,374.31 1871.27,377.006 1858.37,381.054Z" style="fill:rgb(255,118,147);stroke:black;stroke-width:0.49px;"/>
                    </g>
                    <g transform="matrix(1,0,0,1,5.57161,-12.2045)">
                        <path d="M1895.91,362.812C1895.91,362.812 1900.38,365.924 1899.5,370.988" style="fill:none;stroke:black;stroke-width:0.42px;"/>
                    </g>
                    <g transform="matrix(1,0,0,1,5.57161,-12.2045)">
                        <path d="M1887.94,360.716C1887.94,360.716 1885.03,359.776 1881.79,363.017" style="fill:none;stroke:black;stroke-width:0.42px;"/>
                    </g>
                    <g transform="matrix(1,0,0,1,5.57161,-12.2045)">
                        <path d="M1861.05,380.539C1861.05,380.539 1844.77,373.358 1847.09,370.251" style="fill:none;stroke:black;stroke-width:0.42px;"/>
                    </g>
                    <g transform="matrix(1,0,0,1,6.34886,-12.4642)">
                        <path d="M1875.59,368.321L1891.24,376.911" style="fill:none;stroke:black;stroke-width:0.42px;"/>
                    </g>
                    <g transform="matrix(1,0,0,1,5.57161,-12.2045)">
                        <path d="M1849.75,374.313C1849.75,374.313 1859.65,378.247 1859.07,375.479C1858.5,372.712 1862.99,372.33 1867.09,374.716C1871.19,377.102 1875.97,376.911 1874.73,374.62C1873.49,372.33 1882.4,374.902 1883.83,376.143C1885.26,377.384 1886.24,377.388 1886.24,377.388C1878.29,377.928 1870.09,379.025 1861.65,380.728L1849.75,374.313Z" style="stroke:black;stroke-width:0.42px;"/>
                    </g>
                    <g transform="matrix(1,0,0,1,5.57161,-12.2045)">
                        <path d="M1877.81,371.798C1877.81,371.798 1883.73,374.657 1883.53,376.252C1883.33,377.848 1892.03,376.648 1892.03,376.648L1879.61,370.801C1881.8,372.962 1880.76,373.005 1877.81,371.798Z" style="stroke:black;stroke-width:0.42px;"/>
                    </g>
                </g>
                <path d="M1850.57,383.861C1850.57,383.861 1880.03,377.454 1891.09,376.123C1910.8,373.752 1918.43,378.08 1918.89,377.101C1922.55,369.246 1920.62,368.743 1918.77,366.179C1917.39,364.264 1896.42,363.895 1877.3,367.042C1865.85,368.927 1856.17,370.709 1849.08,374.753C1845.8,376.625 1849.07,382.25 1850.57,383.861Z" style="fill:rgb(255,200,31);stroke:black;stroke-width:0.42px;"/>
                <g transform="matrix(1,0,0,1,-1.46597,5.35396)">
                    <path d="M1879.94,429.43C1879.94,429.43 1875.18,428.022 1878.81,423.769C1882.44,419.516 1875.74,420.051 1872.99,423.678C1870.24,427.306 1870.24,434.436 1873.11,430.683C1875.99,426.931 1876.75,430.459 1877,432.085C1877.25,433.712 1879.94,429.43 1879.94,429.43Z" style="fill:rgb(138,227,242);stroke:black;stroke-width:0.42px;"/>
                </g>
                <g transform="matrix(-0.15168,-0.98843,0.98843,-0.15168,1768.19,2301.15)">
                    <path d="M1879.94,429.43C1879.94,429.43 1875.18,428.022 1878.81,423.769C1882.44,419.516 1875.74,420.051 1872.99,423.678C1870.24,427.306 1870.24,434.436 1873.11,430.683C1875.99,426.931 1876.75,430.459 1877,432.085C1877.25,433.712 1879.94,429.43 1879.94,429.43Z" style="fill:rgb(138,227,242);stroke:black;stroke-width:0.42px;"/>
                </g>
                <g transform="matrix(0.341147,0.94001,-0.94001,0.341147,1656.15,-1493.06)">
                    <path d="M1879.94,429.43C1879.94,429.43 1875.16,428.841 1877.09,423.592C1877.88,421.426 1875.74,420.051 1872.99,423.678C1870.24,427.306 1870.24,434.436 1873.11,430.683C1875.99,426.931 1876.75,430.459 1877,432.085C1877.25,433.712 1879.94,429.43 1879.94,429.43Z" style="fill:rgb(138,227,242);stroke:black;stroke-width:0.42px;"/>
                </g>
                <g transform="matrix(0.281896,0.776746,-0.711272,0.258134,1655.43,-1104.05)">
                    <path d="M1879.94,429.43C1879.94,429.43 1875.16,428.841 1877.09,423.592C1877.88,421.426 1875.74,420.051 1872.99,423.678C1870.24,427.306 1870.24,434.436 1873.11,430.683C1875.99,426.931 1876.75,430.459 1877,432.085C1877.25,433.712 1879.94,429.43 1879.94,429.43Z" style="fill:rgb(138,227,242);stroke:black;stroke-width:0.53px;"/>
                </g>
                <g transform="matrix(0.798291,-0.213379,0.195393,0.731001,316.487,533.207)">
                    <path d="M1879.94,429.43C1879.94,429.43 1875.16,428.841 1877.09,423.592C1877.88,421.426 1875.74,420.051 1872.99,423.678C1870.24,427.306 1870.24,434.436 1873.11,430.683C1875.99,426.931 1876.75,430.459 1877,432.085C1877.25,433.712 1879.94,429.43 1879.94,429.43Z" style="fill:rgb(138,227,242);stroke:black;stroke-width:0.53px;"/>
                </g>
                <g transform="matrix(1,0,0,1,0.663274,4.50079)">
                    <path d="M1900.16,411.83L1903.77,409.424L1904.51,412.94C1903.09,413.958 1901.67,414.976 1900.25,415.994L1900.16,411.83Z" style="fill:rgb(255,200,31);stroke:black;stroke-width:0.42px;"/>
                </g>
                <g transform="matrix(1,0,0,1,2.54363,11.5435)">
                    <path d="M1900.16,411.83L1903.77,409.424L1904.51,412.94C1903.09,413.958 1901.67,414.976 1900.25,415.994L1900.16,411.83Z" style="fill:rgb(255,200,31);stroke:black;stroke-width:0.42px;"/>
                </g>
                <g transform="matrix(1,0,0,1,-31.2053,-24.8614)">
                    <path d="M1900.16,411.83L1903.77,409.424L1904.51,412.94C1903.09,413.958 1901.67,414.976 1900.25,415.994L1900.16,411.83Z" style="fill:rgb(255,200,31);stroke:black;stroke-width:0.42px;"/>
                </g>
                <g transform="matrix(0.555407,-0.831579,0.831579,0.555407,490.103,1795.41)">
                    <path d="M1900.16,411.83L1903.77,409.424L1904.51,412.94L1900.25,415.994L1900.16,411.83Z" style="fill:rgb(255,200,31);stroke:black;stroke-width:0.42px;"/>
                </g>
                <g transform="matrix(0.629796,0.00663669,-0.00663669,0.629796,691.252,195.621)">
                    <path d="M1900.16,411.83L1903.77,409.424L1904.51,412.94L1900.25,415.994L1900.16,411.83Z" style="fill:rgb(255,200,31);stroke:black;stroke-width:0.67px;"/>
                </g>
                <g transform="matrix(0.629796,0.00663669,-0.00663669,0.629796,678.653,168.01)">
                    <path d="M1900.16,411.83L1903.77,409.424L1904.51,412.94L1900.25,415.994L1900.16,411.83Z" style="fill:rgb(255,200,31);stroke:black;stroke-width:0.67px;"/>
                </g>
                <g transform="matrix(0.629796,0.00663669,-0.00663669,0.629796,664.365,114.059)">
                    <path d="M1900.16,411.83L1903.77,409.424L1904.51,412.94L1900.25,415.994L1900.16,411.83Z" style="fill:rgb(255,200,31);stroke:black;stroke-width:0.67px;"/>
                </g>
                <g transform="matrix(0.120733,-0.618151,0.618151,0.120733,1387.77,1540.3)">
                    <path d="M1900.16,411.83L1903.77,409.424L1904.51,412.94L1900.25,415.994L1900.16,411.83Z" style="fill:rgb(255,200,31);stroke:black;stroke-width:0.67px;"/>
                </g>
                <g transform="matrix(1.60316,0,0,1.60316,-1135.42,-248.832)">
                    <circle cx="1872.48" cy="403.799" r="6.444" style="stroke:black;stroke-width:0.26px;"/>
                </g>
                <g transform="matrix(1.60316,0,0,1.60316,-1108.02,-250.841)">
                    <circle cx="1872.48" cy="403.799" r="6.444" style="stroke:black;stroke-width:0.26px;"/>
                </g>
                <g transform="matrix(1.08547,0,0,1.08547,-165.958,-33.6566)">
                    <path d="M1873.36,393.907C1873.36,393.907 1869.98,397.63 1869.98,399.152C1869.98,400.675 1873.87,399.998 1871.75,402.198C1869.64,404.398 1874.97,403.89 1875.9,400.929C1876.83,397.968 1873.27,398.729 1875.14,396.445C1877,394.161 1874.46,391.792 1873.36,393.907Z" style="fill:white;stroke:black;stroke-width:0.39px;"/>
                </g>
                <g transform="matrix(1.08547,0,0,1.08547,-140.061,-37.0544)">
                    <path d="M1873.36,393.907C1873.36,393.907 1869.98,397.63 1869.98,399.152C1869.98,400.675 1873.87,399.998 1871.75,402.198C1869.64,404.398 1874.97,403.89 1875.9,400.929C1876.83,397.968 1873.27,398.729 1875.14,396.445C1877,394.161 1874.46,391.792 1873.36,393.907Z" style="fill:white;stroke:black;stroke-width:0.39px;"/>
                </g>
                <g transform="matrix(1.08547,0,0,1.08547,-165.958,-33.6566)">
                    <rect x="1880.89" y="396.614" width="8.714" height="2.707" style="stroke:black;stroke-width:0.39px;"/>
                </g>
                <g transform="matrix(1.27972,0,0,1,-535.765,0)">
                    <path d="M1906.02,394.671C1908.92,392.446 1912.78,390.684 1915.36,390.785L1914.69,393.094C1912.03,394.036 1909.28,396.178 1906.51,398.705L1906.02,394.671Z" style="stroke:black;stroke-width:0.37px;"/>
                </g>
                <g transform="matrix(0.0552272,0.795382,-0.997598,0.069268,2226.08,-1109.15)">
                    <circle cx="1898.71" cy="433.216" r="4.001" style="fill:rgb(173,20,76);stroke:black;stroke-width:0.47px;"/>
                </g>
                <g transform="matrix(-0.744304,0.285822,-0.358488,-0.933534,3446.19,310.735)">
                    <circle cx="1898.71" cy="433.216" r="4.001" style="fill:rgb(173,20,76);stroke:black;stroke-width:0.47px;"/>
                </g>
                <g transform="matrix(-0.570591,-0.556874,0.698453,-0.715656,2668.1,1796.76)">
                    <circle cx="1898.71" cy="433.216" r="4.001" style="fill:rgb(173,20,76);stroke:black;stroke-width:0.47px;"/>
                </g>
                <g transform="matrix(-0.570591,-0.556874,0.698453,-0.715656,2685.19,1774.53)">
                    <circle cx="1898.71" cy="433.216" r="4.001" style="fill:rgb(173,20,76);stroke:black;stroke-width:0.47px;"/>
                </g>
                <g transform="matrix(-0.583094,-0.952743,0.527023,-0.322547,2745.39,2367.02)">
                    <circle cx="1898.71" cy="433.216" r="4.001" style="fill:rgb(173,20,76);stroke:black;stroke-width:0.47px;"/>
                </g>
                <path d="M1879.64,408.128C1879.64,408.128 1880.62,411.614 1876.86,412.171C1873.09,412.729 1886.88,411.435 1885.91,417.493C1885.02,423.102 1884.95,423.166 1878.45,422.146" style="fill:none;stroke:black;stroke-width:0.42px;"/>
                <path d="M1885.18,420.382C1885.04,423.931 1879.57,422.22 1879.55,422.184C1879.52,422.148 1879.47,420.808 1879.47,420.808L1885.18,420.382Z" style="fill:white;stroke:black;stroke-width:0.42px;"/>
                <g transform="matrix(1,0,0,1,1.48576,-0.318378)">
                    <path d="M1882.82,416.884C1882.82,416.884 1881.37,417.566 1880.72,417.129C1880.06,416.693 1878.48,416.966 1877.88,417.566C1877.28,418.166 1876.82,418.903 1875.72,418.603C1874.63,418.302 1876.68,420.43 1878.1,419.721C1879.52,419.012 1880.23,418.166 1880.99,418.984C1881.75,419.803 1882.82,419.885 1883.31,419.148C1883.8,418.412 1882.98,416.939 1882.98,416.939" style="fill:rgb(255,118,147);stroke:black;stroke-width:0.42px;"/>
                </g>
            </g>
        </g>
    </g>
</svg>
