<?xml version="1.0" encoding="UTF-8" standalone="no"?>
<!DOCTYPE svg PUBLIC "-//W3C//DTD SVG 1.1//EN" "http://www.w3.org/Graphics/SVG/1.1/DTD/svg11.dtd">
<svg width="100%" height="100%" viewBox="0 0 418 231" version="1.1" xmlns="http://www.w3.org/2000/svg" xmlns:xlink="http://www.w3.org/1999/xlink" xml:space="preserve" xmlns:serif="http://www.serif.com/" style="fill-rule:evenodd;clip-rule:evenodd;stroke-linecap:round;stroke-linejoin:round;stroke-miterlimit:1.5;">
    <g transform="matrix(1,0,0,1,-2118,-1219)">
        <g transform="matrix(1.64327,0,0,1.64327,704.986,1119.76)">
            <path d="M862.96,71.809C862.724,72.011 861.242,73.159 861.006,73.344C860.54,73.71 865.297,81.476 864.851,81.809C861.608,84.232 859.276,86.318 863.138,95.9C867.798,107.464 874.174,199.827 913.873,200C953.572,200.173 1077.05,200 1077.05,200L1110.37,200C1110.37,200 1116.41,199.462 1111.57,197.564C1106.74,195.665 1090.17,192.731 1084.99,186.344C1079.81,179.958 1081.82,168.469 1058.35,166.225C1034.87,163.981 1021.24,163.579 1011.57,152.532C1001.9,141.485 993.562,137.458 982.86,136.077C972.159,134.696 964.219,124.8 961.457,116.86C958.696,108.921 910.404,88.595 904.19,77.03C901.51,72.042 894.67,67.149 888.148,67.874C887.128,67.987 884.988,62.719 883.089,61.526C882.629,61.236 880.807,62.536 880.484,62.708C879.815,63.064 882.921,69.225 882.213,69.529C876.213,72.103 871.416,76.353 868.246,79.089C868.019,79.284 863.163,71.636 862.96,71.809Z" style="fill:rgb(255,118,147);stroke:black;stroke-width:1.22px;"/>
            <g transform="matrix(1,0,0,1,-0.259416,-1.40568)">
                <circle cx="872.985" cy="89.941" r="1.016" style="stroke:black;stroke-width:1.22px;"/>
            </g>
            <g transform="matrix(1,0,0,1,16.7837,-14.0085)">
                <circle cx="872.985" cy="89.941" r="1.016" style="stroke:black;stroke-width:1.22px;"/>
            </g>
            <g transform="matrix(1,0,0,1,-3.76457,-5.24868)">
                <path d="M880.93,94.839C880.93,94.839 890.583,95.201 893.418,85.668" style="fill:none;stroke:black;stroke-width:1.22px;"/>
            </g>
        </g>
    </g>
</svg>
