<?xml version="1.0" encoding="UTF-8" standalone="no"?>
<!DOCTYPE svg PUBLIC "-//W3C//DTD SVG 1.1//EN" "http://www.w3.org/Graphics/SVG/1.1/DTD/svg11.dtd">
<svg width="100%" height="100%" viewBox="0 0 116 216" version="1.1" xmlns="http://www.w3.org/2000/svg" xmlns:xlink="http://www.w3.org/1999/xlink" xml:space="preserve" xmlns:serif="http://www.serif.com/" style="fill-rule:evenodd;clip-rule:evenodd;stroke-linecap:round;stroke-linejoin:round;stroke-miterlimit:1.5;">
    <g transform="matrix(1,0,0,1,-1868,-819)">
        <g transform="matrix(3.95957,0,0,1.69453,1216.62,0)">
            <g transform="matrix(0.585254,0,0,1.36755,-1139.26,298.962)">
                <path d="M2231.22,162.555L2238.42,227.146L2267.07,227.571L2273.44,161.985L2231.22,162.555Z" style="fill:rgb(254,229,99);stroke:rgb(42,33,48);stroke-width:0.86px;"/>
                <path d="M2254.99,188.932C2254.99,188.932 2253.79,193.102 2257.23,193.623" style="fill:none;stroke:rgb(42,33,48);stroke-width:0.86px;"/>
                <g transform="matrix(1,0,0,-1,0,323.052)">
                    <path d="M2228.44,160.507L2229.53,163.496L2274.49,163.224L2275.99,159.557L2228.44,160.507Z" style="fill:rgb(138,227,242);stroke:rgb(42,33,48);stroke-width:0.86px;"/>
                </g>
                <path d="M2239.99,180.748C2239.99,180.748 2239.04,170.696 2244.2,170.56C2249.36,170.424 2246.65,181.427 2246.78,181.427C2246.92,181.427 2243.66,179.797 2239.99,180.748Z" style="fill:white;stroke:rgb(42,33,48);stroke-width:0.86px;"/>
                <g transform="matrix(1,0,0,1,15.4034,1.09158)">
                    <path d="M2239.99,180.748C2239.99,180.748 2239.04,170.696 2244.2,170.56C2249.36,170.424 2246.65,181.427 2246.78,181.427C2246.92,181.427 2243.66,179.797 2239.99,180.748Z" style="fill:white;stroke:rgb(42,33,48);stroke-width:0.86px;"/>
                </g>
                <path d="M2254.24,182.619C2254.24,182.619 2259.09,178.115 2263.91,183.829" style="fill:rgb(254,229,99);stroke:rgb(42,33,48);stroke-width:0.86px;"/>
                <g transform="matrix(1,0,0,1,-15.3584,-1.27524)">
                    <path d="M2254.24,182.619C2254.24,182.619 2259.09,178.115 2263.91,183.829" style="fill:rgb(254,229,99);stroke:rgb(42,33,48);stroke-width:0.86px;"/>
                </g>
                <path d="M2240.09,177.508C2240.09,177.508 2242.47,173.239 2247.13,176.344C2247.13,176.344 2248.02,170.633 2244.3,170.688C2240.59,170.744 2240.09,177.508 2240.09,177.508Z" style="fill:rgb(254,229,99);stroke:rgb(42,33,48);stroke-width:0.86px;"/>
                <g transform="matrix(1,0,0,1,15.2396,0.950492)">
                    <path d="M2240.31,176.431C2240.31,176.431 2242.92,173.144 2247.57,176.249C2247.57,176.249 2248.02,170.633 2244.3,170.688C2240.59,170.744 2240.31,176.431 2240.31,176.431Z" style="fill:rgb(254,229,99);stroke:rgb(42,33,48);stroke-width:0.86px;"/>
                </g>
                <path d="M2241.95,176.074C2241.95,176.074 2243.53,178.546 2242.36,179.401C2241.19,180.257 2240.18,180.193 2240.18,180.193L2240.3,177.11L2241.95,176.074Z" style="fill:rgb(42,33,48);stroke:rgb(42,33,48);stroke-width:0.86px;"/>
                <g transform="matrix(1,0,0,1,15.3566,0.811086)">
                    <path d="M2241.95,176.074C2241.95,176.074 2243.53,178.546 2242.36,179.401C2241.19,180.257 2240.18,180.193 2240.18,180.193L2240.3,177.11L2241.95,176.074Z" style="fill:rgb(42,33,48);stroke:rgb(42,33,48);stroke-width:0.86px;"/>
                </g>
                <path d="M2254.83,159.491L2260.14,145.812L2261.13,144.933L2260.68,143.697L2262.06,143.148L2261.67,141.438L2263.09,141.775L2263.25,140.423L2276.48,135.599L2277.15,137.543L2265.55,142.773L2264.54,142.505L2264.54,143.511L2263.81,143.511L2263.94,144.919L2262.8,144.718L2263.4,146.26L2262.53,145.925L2262.87,147.065L2258.44,159.403L2254.83,159.491Z" style="fill:rgb(138,227,242);stroke:rgb(42,33,48);stroke-width:0.86px;"/>
                <path d="M2246.17,191.017C2246.17,191.017 2245.26,193.754 2254.84,191.359" style="fill:none;stroke:rgb(42,33,48);stroke-width:0.86px;"/>
                <g transform="matrix(1,0,0,1,0.653665,0.163416)">
                    <path d="M2247.01,192.159C2247.01,192.159 2246.1,192.28 2244.92,194.232" style="fill:none;stroke:rgb(42,33,48);stroke-width:0.86px;"/>
                </g>
                <g transform="matrix(1,0,0,1,2.3423,0.13618)">
                    <path d="M2247.01,192.159C2247.01,192.159 2245.94,192.934 2246.2,195.267" style="fill:none;stroke:rgb(42,33,48);stroke-width:0.86px;"/>
                </g>
                <path d="M2267.44,192.44L2264.54,224.397" style="fill:none;stroke:rgb(42,33,48);stroke-width:0.86px;"/>
            </g>
        </g>
    </g>
</svg>
