<?xml version="1.0" encoding="UTF-8" standalone="no"?>
<!DOCTYPE svg PUBLIC "-//W3C//DTD SVG 1.1//EN" "http://www.w3.org/Graphics/SVG/1.1/DTD/svg11.dtd">
<svg width="100%" height="100%" viewBox="0 0 309 254" version="1.1" xmlns="http://www.w3.org/2000/svg" xmlns:xlink="http://www.w3.org/1999/xlink" xml:space="preserve" xmlns:serif="http://www.serif.com/" style="fill-rule:evenodd;clip-rule:evenodd;stroke-linecap:round;stroke-linejoin:round;stroke-miterlimit:1.5;">
    <g transform="matrix(1,0,0,1,-1563,-1088)">
        <g transform="matrix(3.95957,0,0,1.69453,1216.62,0)">
            <g transform="matrix(0.717761,0,0,1.68555,-1077.07,440.555)">
                <path d="M1654.66,139.045C1648.44,143.543 1641.65,148.539 1646.83,160.368C1648.23,163.573 1649.67,167.702 1650.47,172.07C1650.74,173.523 1652.79,179.581 1636.17,171.429C1632.22,169.495 1631.61,177.87 1627.44,175.323C1624.98,173.822 1620.13,178.051 1625.64,181.118C1633.61,185.546 1653.56,180.491 1649.98,186.316C1645.56,193.478 1645.34,194.634 1639.7,196.981C1625.36,202.943 1637.56,201.059 1648.53,202.888C1654.97,203.963 1661.95,194.832 1669.02,196.451C1679.81,198.925 1654.79,209.485 1682.01,207.833C1693.89,207.111 1679.22,197.811 1685.28,195.06C1695.9,190.24 1699.66,204.36 1707.74,203.172C1717.37,201.755 1713.83,190.556 1702.64,187.306C1696.63,185.559 1705.03,178.925 1712.86,181.964C1716.86,183.518 1723.47,182.973 1724.48,183.001C1737.88,183.38 1725.51,176.242 1721.18,175.125C1718.17,174.351 1714.48,171.046 1703.94,172.824C1695.98,174.166 1688.23,178.643 1689.95,174.197C1693.41,165.285 1690.56,164.039 1694.91,157.769C1700.41,149.835 1689.97,134.41 1674.37,134.13C1665.17,133.964 1658.81,136.045 1654.66,139.045Z" style="fill:rgb(255,118,147);stroke:black;stroke-width:0.7px;"/>
                <g transform="matrix(1,0,0,1,-4.71913,-3.48133)">
                    <circle cx="1657.91" cy="154.68" r="5.113" style="fill:white;stroke:black;stroke-width:0.7px;"/>
                </g>
                <g transform="matrix(0.46936,0,0,0.46936,877.243,80.2569)">
                    <circle cx="1657.91" cy="154.68" r="5.113" style="stroke:black;stroke-width:1.5px;"/>
                </g>
                <g transform="matrix(1,0,0,1,8.43255,-11.0629)">
                    <circle cx="1657.91" cy="154.68" r="5.113" style="fill:white;stroke:black;stroke-width:0.7px;"/>
                </g>
                <g transform="matrix(1,0,0,1,23.3246,-3.59644)">
                    <circle cx="1657.91" cy="154.68" r="5.113" style="fill:white;stroke:black;stroke-width:0.7px;"/>
                </g>
                <g transform="matrix(0.46936,0,0,0.46936,890.093,72.6383)">
                    <circle cx="1657.91" cy="154.68" r="5.113" style="stroke:black;stroke-width:1.5px;"/>
                </g>
                <g transform="matrix(0.46936,0,0,0.46936,905.207,80.2086)">
                    <circle cx="1657.91" cy="154.68" r="5.113" style="stroke:black;stroke-width:1.5px;"/>
                </g>
                <g transform="matrix(0.842857,0,0,1.36429,262.518,-60.6147)">
                    <circle cx="1666.98" cy="167.708" r="3.943" style="fill:none;stroke:black;stroke-width:0.62px;"/>
                </g>
                <g transform="matrix(0.445483,0,0,0.827135,924.935,29.3687)">
                    <circle cx="1666.98" cy="167.708" r="3.943" style="stroke:black;stroke-width:1.06px;"/>
                </g>
                <g transform="matrix(1,0,0,1,2.92259,-2.57876)">
                    <path d="M1668.69,122.49C1687.24,122.49 1699.89,135.455 1699.89,154.004C1699.89,161.21 1695.71,168.283 1691.84,173.757C1685.76,182.376 1679.17,181.453 1667.82,181.453C1657.59,181.453 1650.77,182.522 1644.6,175.296C1639.59,169.426 1636.44,162.214 1636.44,153.9C1636.44,135.35 1650.14,122.49 1668.69,122.49Z" style="fill:none;stroke:black;stroke-width:0.7px;"/>
                </g>
                <path d="M1649.81,175.035L1648.47,175.893C1648.47,175.893 1648.47,182.868 1671.21,181.902C1693.96,180.936 1692.3,176.161 1692.3,176.161C1691.62,175.59 1691.28,175.784 1689.88,176.215C1689.88,176.215 1687.81,177.818 1682.66,178.664C1679.65,179.158 1675.31,178.647 1671.33,178.851C1666.29,179.109 1662.27,179.458 1655.94,178.077C1653.86,177.624 1651.51,176.439 1649.81,175.035Z" style="fill:rgb(255,200,31);stroke:black;stroke-width:0.7px;"/>
                <path d="M1650.88,178.635L1651.61,176.678" style="fill:none;stroke:black;stroke-width:0.7px;"/>
                <g transform="matrix(1.73236,0,0,1.11551,-1203.96,-18.4707)">
                    <path d="M1650.88,178.635L1651.16,176.369" style="fill:none;stroke:black;stroke-width:0.48px;"/>
                </g>
                <g transform="matrix(1.00065,-0.00896777,-0.00905752,1.12499,11.43,-4.39888)">
                    <path d="M1650.88,178.635L1651.06,176.266" style="fill:none;stroke:black;stroke-width:0.66px;"/>
                </g>
                <g transform="matrix(0.989522,-0.155701,0.152959,1.27172,8.0241,211.836)">
                    <path d="M1650.88,178.635L1651.06,176.266" style="fill:none;stroke:black;stroke-width:0.62px;"/>
                </g>
                <g transform="matrix(0.990823,-0.135169,0.135169,0.990823,17.6739,227.502)">
                    <path d="M1650.88,178.635L1651.06,176.266" style="fill:none;stroke:black;stroke-width:0.7px;"/>
                </g>
                <g transform="matrix(0.948163,-0.317785,0.317785,0.948163,62.188,535.671)">
                    <path d="M1650.88,178.635L1650.98,176.602" style="fill:none;stroke:black;stroke-width:0.7px;"/>
                </g>
                <g transform="matrix(1.5735,-1.17163,0.528692,0.710037,-1001.31,1985.56)">
                    <path d="M1650.88,178.635L1650.98,176.602" style="fill:none;stroke:black;stroke-width:0.46px;"/>
                </g>
                <g transform="matrix(0.751687,-0.142187,0.100279,0.530133,396.663,294.601)">
                    <path d="M1644.97,140.412C1651.1,137.111 1675.39,125.764 1670.77,124.694C1668.67,124.205 1662.77,123.286 1652.68,129.967C1642.6,136.647 1642.2,141.902 1644.97,140.412Z" style="fill:none;stroke:black;stroke-width:1.06px;"/>
                </g>
            </g>
        </g>
    </g>
</svg>
