<?xml version="1.0" encoding="UTF-8" standalone="no"?>
<!DOCTYPE svg PUBLIC "-//W3C//DTD SVG 1.1//EN" "http://www.w3.org/Graphics/SVG/1.1/DTD/svg11.dtd">
<svg width="100%" height="100%" viewBox="0 0 347 148" version="1.1" xmlns="http://www.w3.org/2000/svg" xmlns:xlink="http://www.w3.org/1999/xlink" xml:space="preserve" xmlns:serif="http://www.serif.com/" style="fill-rule:evenodd;clip-rule:evenodd;stroke-linecap:round;stroke-linejoin:round;stroke-miterlimit:1.5;">
    <g transform="matrix(1,0,0,1,-3100,-1453)">
        <g transform="matrix(3.95957,0,0,1.69453,1216.62,0)">
            <g transform="matrix(0.82872,0.242385,-0.103731,1.93645,-780.514,304.429)">
                <g transform="matrix(0.992257,-0.124201,0.124201,0.992257,-532.577,173.024)">
                    <path d="M2102.01,207.401C2101.15,207.86 2100.65,208.349 2100.72,209.117L2103.93,209.094L2102.01,207.401Z" style="fill:rgb(138,227,242);stroke:black;stroke-width:0.6px;"/>
                </g>
                <g transform="matrix(0.779867,0.312982,-0.372453,0.928051,385.744,-487.265)">
                    <path d="M1575.5,106.404C1575.5,106.404 1583.76,110.115 1590.64,105.045C1591.29,104.566 1590.33,104.489 1592.12,103.13C1593.92,101.77 1595.14,105.615 1593.53,106.356C1591.92,107.098 1589.47,112.398 1575.01,109.123C1560.55,105.848 1575.5,106.404 1575.5,106.404Z" style="fill:rgb(138,227,242);stroke:black;stroke-width:0.65px;"/>
                </g>
                <path d="M1539.68,118.395C1539.68,118.395 1538.57,120.581 1540.63,123.675C1540.63,123.675 1541.22,125.452 1541.44,126.63C1541.44,126.63 1541.57,124.63 1542.11,124.297C1542.56,124.029 1544.23,123.778 1544.08,123.447C1543.93,123.116 1542.15,122.619 1542.15,122.619C1542.15,122.619 1539.46,119.132 1540.94,117.953C1542.41,116.775 1539.68,118.395 1539.68,118.395Z" style="fill:rgb(138,227,242);stroke:black;stroke-width:0.6px;"/>
                <path d="M1535.3,110.286C1532.86,121.7 1533.11,121.029 1533.81,128.564C1534.51,136.1 1536.65,137.625 1544.34,136.563C1552.04,135.502 1549.59,129.015 1542.97,129.127C1537.09,129.226 1543.16,133.753 1542.76,132.933C1540.03,127.377 1553.61,134.515 1541.17,134.436C1533.88,134.39 1538.9,119.389 1541.3,119.263C1543.7,119.137 1546.17,117.872 1546.17,117.872C1546.17,117.872 1553.85,120.149 1551.64,120.781C1549.43,121.413 1549.29,122.895 1550.23,122.845C1551.48,122.78 1552.07,122.276 1552.96,122.655C1553.84,123.034 1554.7,124.905 1555.14,124.02C1555.59,123.135 1554.36,121.097 1554.36,121.097L1554.07,118.82L1548.07,114.901C1565.64,115.912 1570.76,110.855 1570.76,110.855C1570.76,110.855 1572.26,112.68 1574.23,114.083C1575.47,114.962 1577.73,116.398 1578.41,116.861C1580.18,118.062 1580.13,117.742 1582.12,120.11C1584.06,122.405 1586.43,119.382 1584.66,117.548C1582.89,115.715 1581.26,113.594 1579.17,112.688C1577.11,111.792 1577.08,111.676 1575.44,109.59C1573.03,106.53 1572.03,106.303 1582.46,105.67C1583.84,105.586 1585.52,105.142 1587.23,104.459C1587.99,104.157 1593.11,101.301 1593.86,100.915C1594.81,100.425 1583.06,100.609 1583.06,100.609L1592.85,96.043C1592.85,96.043 1589.67,95.369 1589.76,94.449C1589.79,94.017 1595.48,88.788 1595.54,88.36C1595.61,87.862 1588.59,93.209 1588.8,92.672C1589.83,90.02 1593.38,87.367 1593.38,87.367C1593.38,87.367 1590.03,88.232 1586.94,89.29C1584.66,90.071 1582.08,90.712 1579.95,90.579C1567.76,89.815 1560.88,93.194 1555.76,94.306C1543.73,96.919 1537.7,99.032 1535.3,110.286Z" style="fill:rgb(138,227,242);stroke:black;stroke-width:0.6px;"/>
                <g transform="matrix(1.5418,0,0,1.5418,-858.214,-53.8536)">
                    <circle cx="1580.75" cy="97.685" r="1.631" style="fill:white;stroke:rgb(42,33,48);stroke-width:0.39px;"/>
                </g>
                <g transform="matrix(0.281484,0,0,0.281484,1134.38,69.0007)">
                    <circle cx="1580.75" cy="97.685" r="1.631" style="stroke:black;stroke-width:2.15px;"/>
                </g>
                <g transform="matrix(0.933452,0,0,0.81033,105.598,17.8125)">
                    <path d="M1589.28,92.174C1589.28,92.174 1587.83,93.388 1587.47,93.704C1586.91,94.177 1586.62,95.637 1588.2,95.358C1589.77,95.079 1589.93,94.59 1589.93,94.59" style="fill:none;stroke:rgb(42,33,48);stroke-width:0.69px;"/>
                </g>
                <path d="M1586.53,89.902C1586.53,89.902 1586.92,91.371 1589.12,91.597" style="fill:none;stroke:rgb(42,33,48);stroke-width:0.6px;"/>
                <g transform="matrix(1,0,0,1,-1.96187,0.781073)">
                    <path d="M1585.1,99.782L1633.06,87.558C1633.06,87.558 1633.39,86.318 1633.88,86.814C1634.38,87.31 1634.3,89.211 1633.55,88.88C1632.81,88.55 1590.16,99.745 1590.16,99.745L1585.1,99.782Z" style="fill:rgb(255,118,147);stroke:rgb(42,33,48);stroke-width:0.6px;"/>
                </g>
                <path d="M1576.18,90.377L1570.59,89.424" style="fill:none;stroke:rgb(42,33,48);stroke-width:0.6px;"/>
                <g transform="matrix(1,0,0,1,-6.84576,0.693242)">
                    <path d="M1576.01,90.247L1569.2,89.814" style="fill:none;stroke:rgb(42,33,48);stroke-width:0.6px;"/>
                </g>
                <g transform="matrix(1,0,0,1,-15.5979,2.25304)">
                    <path d="M1577.91,90.117L1572.45,90.291" style="fill:none;stroke:rgb(42,33,48);stroke-width:0.6px;"/>
                </g>
                <g transform="matrix(1,0,0,1,-22.5304,4.20278)">
                    <path d="M1577.91,90.117L1572.45,90.291" style="fill:none;stroke:rgb(42,33,48);stroke-width:0.6px;"/>
                </g>
                <g transform="matrix(1,0,0,1,-28.8562,5.8059)">
                    <path d="M1577.91,90.117L1572.45,90.291" style="fill:none;stroke:rgb(42,33,48);stroke-width:0.6px;"/>
                </g>
                <g transform="matrix(1,0,0,1,-34.2288,7.88563)">
                    <path d="M1577.91,90.117L1573.02,91.504" style="fill:none;stroke:rgb(42,33,48);stroke-width:0.6px;"/>
                </g>
                <g transform="matrix(1,0,0,1,-38.3016,10.8752)">
                    <path d="M1577.91,90.117L1573.75,92.717" style="fill:none;stroke:rgb(42,33,48);stroke-width:0.6px;"/>
                </g>
                <g transform="matrix(1,0,0,1,-41.2912,15.338)">
                    <path d="M1577.91,90.117L1575.1,93.8" style="fill:none;stroke:rgb(42,33,48);stroke-width:0.6px;"/>
                </g>
                <g transform="matrix(1,0,0,1,-42.6777,21.1005)">
                    <path d="M1577.64,90.803L1576.09,93.107" style="fill:none;stroke:rgb(42,33,48);stroke-width:0.6px;"/>
                </g>
                <g transform="matrix(1,0,0,1,-43.8327,26.8239)">
                    <path d="M1577.64,90.803L1576.09,93.107" style="fill:none;stroke:rgb(42,33,48);stroke-width:0.6px;"/>
                </g>
                <g transform="matrix(1,0,0,1,-44.2268,34.6764)">
                    <path d="M1577.64,90.803L1576.67,93.776" style="fill:none;stroke:rgb(42,33,48);stroke-width:0.6px;"/>
                </g>
                <g transform="matrix(1,0,0,1,-43.2349,41.4728)">
                    <path d="M1577.64,90.803L1577.62,93.48" style="fill:none;stroke:rgb(42,33,48);stroke-width:0.6px;"/>
                </g>
                <g transform="matrix(1,0,0,1,-40.9615,45.5312)">
                    <path d="M1577.63,90.451L1579.52,92.255" style="fill:none;stroke:rgb(42,33,48);stroke-width:0.6px;"/>
                </g>
            </g>
        </g>
    </g>
</svg>
