<?xml version="1.0" encoding="UTF-8" standalone="no"?>
<!DOCTYPE svg PUBLIC "-//W3C//DTD SVG 1.1//EN" "http://www.w3.org/Graphics/SVG/1.1/DTD/svg11.dtd">
<svg width="100%" height="100%" viewBox="0 0 272 195" version="1.1" xmlns="http://www.w3.org/2000/svg" xmlns:xlink="http://www.w3.org/1999/xlink" xml:space="preserve" xmlns:serif="http://www.serif.com/" style="fill-rule:evenodd;clip-rule:evenodd;stroke-linecap:round;stroke-linejoin:round;stroke-miterlimit:1.5;">
    <g transform="matrix(1,0,0,1,-1317,-1510)">
        <g transform="matrix(3.95957,0,0,1.69453,1216.62,0)">
            <g transform="matrix(0.994029,-0.17811,0.0762235,2.32273,-360.404,600.554)">
                <path d="M373.016,202.194C373.016,202.194 389.309,201.538 389.882,191.612C390.454,181.687 399.644,184.187 405.536,183.49C411.007,182.843 423.979,178.907 424.552,172.226C425.125,165.546 425.316,158.865 433.141,158.674C437.544,158.567 439.167,160.815 439.746,163.957C440.196,166.402 440.013,169.387 440.013,172.226C440.013,178.716 439.029,186.416 432.033,186.733C421.912,187.191 419.601,194.513 403.434,195.43C398.031,195.736 400.122,202.895 395.402,203.944C390.333,205.072 373.016,202.194 373.016,202.194Z" style="fill:rgb(138,227,242);stroke:black;stroke-width:0.51px;"/>
                <g transform="matrix(1,0,0,0.759502,0,40.0499)">
                    <path d="M425.264,166.477C425.264,166.477 437.177,161.838 439.835,165.2L444.213,162.684C444.213,162.684 445.426,158.8 440.226,158.591C434.518,158.362 432.301,156.86 425.264,166.477Z" style="fill:rgb(255,118,147);stroke:black;stroke-width:0.57px;"/>
                </g>
                <circle cx="431.018" cy="168.992" r="0.55" style="stroke:black;stroke-width:0.51px;"/>
                <g transform="matrix(1,0,0,1,6.21002,-0.122971)">
                    <circle cx="431.018" cy="168.992" r="0.55" style="stroke:black;stroke-width:0.51px;"/>
                </g>
                <g transform="matrix(1,0,0,1,1.10674,-0.122971)">
                    <path d="M432.623,173.658C432.623,173.658 432.848,175.38 434.037,175.318C435.226,175.257 435.164,173.494 435.164,173.494L432.623,173.658Z" style="stroke:black;stroke-width:0.51px;"/>
                </g>
                <path d="M389.313,194.664C394.056,194.504 397.21,195.933 399.561,198.165C399.561,198.165 400.884,195.176 403.404,195.261C402.388,191.662 402.185,187.83 402.763,183.776C402.763,183.776 396.7,182.58 392.772,185.227C388.844,187.875 389.313,194.664 389.313,194.664Z" style="stroke:black;stroke-width:0.51px;"/>
                <path d="M416.042,180.53C415.65,184.743 416.449,188.402 419.074,191.248C419.074,191.248 425.564,187.704 428.169,187.277C425.245,183.683 424.212,178.765 424.136,173.805C424.136,173.805 422.148,177.883 416.042,180.53Z" style="stroke:black;stroke-width:0.51px;"/>
            </g>
        </g>
    </g>
</svg>
