<svg width="201" height="171" viewBox="0 0 201 171" fill="none" xmlns="http://www.w3.org/2000/svg">
<mask id="mask0_119_45" style="mask-type:alpha" maskUnits="userSpaceOnUse" x="0" y="0" width="201" height="171">
<rect width="201" height="171" fill="#C4C4C4"/>
</mask>
<g mask="url(#mask0_119_45)">
<path fill-rule="evenodd" clip-rule="evenodd" d="M270.237 190.898C270.237 190.898 206.307 183.399 207.047 144.158C207.791 104.921 170.865 111.987 147.885 107.466C126.547 103.268 76.6782 83.861 76.4393 57.392C76.2001 30.9271 77.4648 4.57342 46.7238 1.45997C29.4262 -0.290057 22.3597 8.0681 19.1325 20.2601C16.6234 29.7476 16.4428 41.5516 15.5859 52.7257C13.6272 78.2699 15.1762 108.874 42.6163 112.233C82.3136 117.09 89.1996 146.606 152.555 155.095C173.728 157.93 163.338 185.477 181.599 191.03C201.209 197 270.237 190.898 270.237 190.898V190.898Z" fill="#8AE3F2" stroke="black" stroke-width="2.01322" stroke-miterlimit="1.5" stroke-linecap="round" stroke-linejoin="round"/>
<path fill-rule="evenodd" clip-rule="evenodd" d="M75.3679 34.5988C75.3679 34.5988 29.5427 17.1356 18.3103 26.3836L1.6555 17.5411C1.6555 17.5411 -2.22846 5.56436 18.2863 6.50901C40.805 7.54719 49.8753 3.72632 75.3679 34.5988V34.5988Z" fill="#FF7693" stroke="black" stroke-width="1.96092" stroke-miterlimit="1.5" stroke-linecap="round" stroke-linejoin="round"/>
<path d="M51.7996 44.8764C50.604 44.7848 49.7092 43.7412 49.8008 42.5457C49.8925 41.3501 50.936 40.4552 52.1316 40.5469C53.3271 40.6386 54.2221 41.6821 54.1304 42.8777C54.0387 44.0732 52.9951 44.9681 51.7996 44.8764Z" fill="black" stroke="black" stroke-width="2.01322" stroke-miterlimit="1.5" stroke-linecap="round" stroke-linejoin="round"/>
<path d="M27.3948 42.5182C26.1992 42.4265 25.3044 41.3831 25.3961 40.1875C25.4877 38.992 26.5312 38.0971 27.7268 38.1887C28.9223 38.2804 29.8173 39.3239 29.7256 40.5195C29.6339 41.7151 28.5903 42.6099 27.3948 42.5182Z" fill="black" stroke="black" stroke-width="2.01322" stroke-miterlimit="1.5" stroke-linecap="round" stroke-linejoin="round"/>
<path fill-rule="evenodd" clip-rule="evenodd" d="M39.9212 59.7744C39.9212 59.7744 38.5159 66.4841 33.8548 65.8812C29.1934 65.2823 29.9694 58.362 29.9694 58.362L39.9212 59.7744Z" fill="black" stroke="black" stroke-width="2.01322" stroke-miterlimit="1.5" stroke-linecap="round" stroke-linejoin="round"/>
<path fill-rule="evenodd" clip-rule="evenodd" d="M208.365 156.342C189.745 154.281 176.9 158.953 166.973 167.029C166.973 167.029 162.668 154.865 152.724 154.439C157.809 140.58 159.764 125.559 158.713 109.428C158.713 109.428 182.938 106.551 197.599 118.155C212.26 129.763 208.365 156.342 208.365 156.342V156.342Z" fill="black" stroke="black" stroke-width="2.01322" stroke-miterlimit="1.5" stroke-linecap="round" stroke-linejoin="round"/>
<path fill-rule="evenodd" clip-rule="evenodd" d="M107.428 92.6444C107.699 109.345 103.45 123.505 92.2594 133.915C92.2594 133.915 67.7849 118.007 57.6607 115.54C70.254 102.277 75.8042 83.2316 77.6004 63.7323C77.6004 63.7323 84.1942 80.3831 107.428 92.6444V92.6444Z" fill="black" stroke="black" stroke-width="2.01322" stroke-miterlimit="1.5" stroke-linecap="round" stroke-linejoin="round"/>
</g>
</svg>
