<svg clip-rule="evenodd" fill-rule="evenodd" stroke-linecap="round" stroke-linejoin="round" stroke-miterlimit="1.5" viewBox="0 0 155 149" xmlns="http://www.w3.org/2000/svg"><g stroke="#000" transform="matrix(5.5357956256 0 0 5.0660685598 -6470.0963959 -778.07077206)"><path d="m1179.95 155.427 2.88 8.847h9.3l-7.52 5.468 2.87 8.847-7.53-5.468-7.52 5.468 2.87-8.847-7.52-5.468h9.3z" fill="#fee563" stroke-width=".39" transform="matrix(.933894 .357549 -.357549 .933894 140.26 -413.159)"/><g fill="none"><path d="m1171.44 172.743-2.68 3.831v5.793" stroke-width=".38" transform="translate(4.86259 -1.04733)"/><path d="m1171.44 172.743-2.68 3.831v5.793" stroke-width=".37" transform="matrix(.934951 -.354777 .354777 .934951 25.1388 426.884)"/><path d="m1178.5 160.128-2.27-4.213 1.86-5.601" stroke-width=".36" transform="matrix(.610741 -.79183 .79183 .610741 330.492 1001.06)"/><path d="m1177.36 159.553-2.63-2.518-3.17-6.431" stroke-width=".36" transform="matrix(-.591561 -.80626 -.80626 .591561 2011.01 1024.46)"/></g><circle cx="1177.96451" cy="162.387489" r=".804" stroke-width=".38"/><circle cx="1187.73159" cy="166.17941" r=".804" stroke-width=".38"/><path d="m1178.93 164.456s3.25 2.26 6.39 2.26" fill="none" stroke-width=".38"/></g></svg>