<?xml version="1.0" encoding="UTF-8" standalone="no"?>
<!DOCTYPE svg PUBLIC "-//W3C//DTD SVG 1.1//EN" "http://www.w3.org/Graphics/SVG/1.1/DTD/svg11.dtd">
<svg width="100%" height="100%" viewBox="0 0 91 113" version="1.1" xmlns="http://www.w3.org/2000/svg" xmlns:xlink="http://www.w3.org/1999/xlink" xml:space="preserve" xmlns:serif="http://www.serif.com/" style="fill-rule:evenodd;clip-rule:evenodd;stroke-linecap:round;stroke-linejoin:round;stroke-miterlimit:1.5;">
    <g transform="matrix(1,0,0,1,-2092,-1691)">
        <g transform="matrix(3.95957,0,0,1.69453,1216.62,0)">
            <g transform="matrix(0.70127,0,0,1.63864,-710.04,736.128)">
                <g transform="matrix(0.977873,-0.2092,0.251586,1.176,-17.1458,245.681)">
                    <path d="M1360.52,186.389C1360.52,178.872 1353.29,172.779 1344.37,172.779C1335.46,172.779 1328.23,178.872 1328.23,186.389L1360.52,186.389Z" style="fill:rgb(138,227,242);stroke:rgb(29,23,3);stroke-width:0.65px;"/>
                </g>
                <path d="M1337.52,171.764L1328.62,178.893C1328.62,178.893 1327.57,169.457 1329.94,168.218C1333.84,166.187 1349.64,155.07 1352.02,166.707C1347.29,166.659 1342.47,168.042 1337.52,171.764Z" style="fill:rgb(255,118,147);stroke:rgb(29,23,3);stroke-width:0.72px;"/>
                <g transform="matrix(1,0,0.348207,1,-59.8099,-0.891044)">
                    <ellipse cx="1343.34" cy="172.767" rx="1.074" ry="1.22" style="fill:rgb(29,23,3);stroke:rgb(29,23,3);stroke-width:0.61px;"/>
                </g>
                <g transform="matrix(0.820656,0,0.285758,0.820656,197.866,28.6706)">
                    <ellipse cx="1343.34" cy="172.767" rx="1.074" ry="1.22" style="fill:rgb(29,23,3);stroke:rgb(29,23,3);stroke-width:0.74px;"/>
                </g>
                <g transform="matrix(1,0,0,1,5.42783,-0.748666)">
                    <path d="M1334.07,185.994L1336.81,193.154L1332.63,200.749" style="fill:none;stroke:rgb(29,23,3);stroke-width:0.72px;"/>
                </g>
                <g transform="matrix(1,0,0,1,18.9019,-1.40778)">
                    <path d="M1332.99,183.748L1336.3,191.657L1333.66,201.408" style="fill:none;stroke:rgb(29,23,3);stroke-width:0.72px;"/>
                </g>
                <g transform="matrix(1,0,0.512,1,-90.7513,0.633637)">
                    <circle cx="1351.57" cy="174.613" r="0.731" style="fill:rgb(29,23,3);stroke:rgb(29,23,3);stroke-width:0.56px;"/>
                </g>
                <path d="M1341.17,164.209L1337.33,171.886C1337.33,171.886 1345.13,165.428 1352.2,169.388L1356.22,162.991C1356.22,162.991 1352.2,156.167 1341.17,164.209Z" style="fill:rgb(173,20,76);stroke:rgb(29,23,3);stroke-width:0.72px;"/>
            </g>
        </g>
    </g>
</svg>
