<svg width="464" height="412" viewBox="0 0 464 412" fill="none" xmlns="http://www.w3.org/2000/svg">
<mask id="mask0_113_202" style="mask-type:alpha" maskUnits="userSpaceOnUse" x="0" y="0" width="464" height="412">
<rect width="464" height="412" fill="#C4C4C4"/>
</mask>
<g mask="url(#mask0_113_202)">
<path fill-rule="evenodd" clip-rule="evenodd" d="M0.75318 413.905L167.702 417.345L237.808 151.118C237.808 151.118 258.046 66.8414 197.576 46.6846C123.103 21.8584 99.1331 103.179 99.1331 103.179L0.75318 413.905Z" fill="#FFC81F" stroke="black" stroke-width="1.44133" stroke-miterlimit="1.5" stroke-linecap="round" stroke-linejoin="round"/>
<path fill-rule="evenodd" clip-rule="evenodd" d="M109.469 416.278L275.534 419.702L343.159 155.196C343.159 155.196 363.398 70.9195 302.927 50.7627C228.454 25.9365 204.485 107.257 204.485 107.257L109.469 416.278Z" fill="#8AE3F2" stroke="black" stroke-width="1.44133" stroke-miterlimit="1.5" stroke-linecap="round" stroke-linejoin="round"/>
<path d="M281.616 112.297L256.559 106.314" stroke="black" stroke-width="1.44133" stroke-miterlimit="1.5" stroke-linecap="round" stroke-linejoin="round"/>
<path d="M239.702 102.952L214.645 96.9688" stroke="black" stroke-width="1.44133" stroke-miterlimit="1.5" stroke-linecap="round" stroke-linejoin="round"/>
<path fill-rule="evenodd" clip-rule="evenodd" d="M248.988 134.756C248.988 134.756 249.36 125.406 242.254 123.538C235.148 121.667 232.532 129.521 232.532 129.521" fill="#8AE3F2"/>
<path d="M248.988 134.756C248.988 134.756 249.36 125.406 242.254 123.538C235.148 121.667 232.532 129.521 232.532 129.521" stroke="black" stroke-width="1.44133" stroke-miterlimit="1.5" stroke-linecap="round" stroke-linejoin="round"/>
<path fill-rule="evenodd" clip-rule="evenodd" d="M217.043 109.486C217.043 109.486 216.736 118.064 216.124 121.433C215.694 123.794 212.295 122.2 211.376 120.669C210.457 119.135 217.196 111.325 217.043 109.486Z" fill="#8AE3F2" stroke="black" stroke-width="1.44133" stroke-miterlimit="1.5" stroke-linecap="round" stroke-linejoin="round"/>
<path fill-rule="evenodd" clip-rule="evenodd" d="M281.614 112.828C281.614 112.828 281.306 121.405 280.694 124.775C280.265 127.135 276.865 125.542 275.946 124.011C275.027 122.477 281.766 114.666 281.614 112.828Z" fill="#8AE3F2" stroke="black" stroke-width="1.44133" stroke-miterlimit="1.5" stroke-linecap="round" stroke-linejoin="round"/>
<path fill-rule="evenodd" clip-rule="evenodd" d="M228.23 418.845L390.575 422.193L459.386 156.499C459.386 156.499 479.624 72.2223 419.154 52.0654C344.681 27.2392 320.711 108.56 320.711 108.56L228.23 418.845Z" fill="#FEE563" stroke="black" stroke-width="1.44133" stroke-miterlimit="1.5" stroke-linecap="round" stroke-linejoin="round"/>
<path d="M372.052 168.644C364.393 166.408 362.224 150.763 367.206 133.7C372.188 116.637 382.435 104.617 390.093 106.854C397.752 109.09 399.921 124.735 394.939 141.798C389.957 158.86 379.71 170.88 372.052 168.644Z" fill="white" stroke="black" stroke-width="1.45191" stroke-miterlimit="1.5" stroke-linecap="round" stroke-linejoin="round"/>
<path d="M369.728 155.995C364.829 154.565 363.441 144.557 366.628 133.642C369.815 122.727 376.37 115.038 381.269 116.469C386.168 117.899 387.556 127.907 384.369 138.822C381.182 149.737 374.627 157.426 369.728 155.995Z" fill="black" stroke="black" stroke-width="1.44888" stroke-miterlimit="1.5" stroke-linecap="round" stroke-linejoin="round"/>
<path d="M384.246 141.609C381.491 141.609 379.258 139.376 379.258 136.621C379.258 133.866 381.491 131.633 384.246 131.633C387 131.633 389.233 133.866 389.233 136.621C389.233 139.376 387 141.609 384.246 141.609Z" fill="white"/>
<path d="M320.396 161.054C312.737 158.818 310.567 143.173 315.549 126.11C320.531 109.047 330.778 97.0276 338.437 99.2637C346.095 101.5 348.265 117.145 343.283 134.208C338.301 151.271 328.054 163.29 320.396 161.054Z" fill="white" stroke="black" stroke-width="1.45191" stroke-miterlimit="1.5" stroke-linecap="round" stroke-linejoin="round"/>
<path d="M317.775 144.872C313.458 143.611 312.234 134.791 315.043 125.171C317.852 115.551 323.629 108.775 327.947 110.036C332.264 111.296 333.488 120.117 330.679 129.737C327.87 139.356 322.093 146.133 317.775 144.872Z" fill="black" stroke="black" stroke-width="1.44067" stroke-miterlimit="1.5" stroke-linecap="round" stroke-linejoin="round"/>
<path d="M330.375 133.18C327.774 133.18 325.665 131.071 325.665 128.47C325.665 125.869 327.774 123.76 330.375 123.76C332.976 123.76 335.085 125.869 335.085 128.47C335.085 131.071 332.976 133.18 330.375 133.18Z" fill="white"/>
<path fill-rule="evenodd" clip-rule="evenodd" d="M391.272 175.637C391.272 175.637 386.677 167.307 374.039 164.147C361.402 160.99 354.078 166.589 354.078 166.589" fill="#FEE563"/>
<path d="M391.272 175.637C391.272 175.637 386.677 167.307 374.039 164.147C361.402 160.99 354.078 166.589 354.078 166.589" stroke="black" stroke-width="1.44133" stroke-miterlimit="1.5" stroke-linecap="round" stroke-linejoin="round"/>
<path fill-rule="evenodd" clip-rule="evenodd" d="M331.913 167.196C331.913 167.196 329.53 161.02 320.015 157.86C310.5 154.702 304.987 160.302 304.987 160.302" fill="#FEE563"/>
<path d="M331.913 167.196C331.913 167.196 329.53 161.02 320.015 157.86C310.5 154.702 304.987 160.302 304.987 160.302" stroke="black" stroke-width="1.41581" stroke-miterlimit="1.5" stroke-linecap="round" stroke-linejoin="round"/>
<path d="M342.108 198.058C342.108 198.058 336.979 209.183 327.298 205.688C319.219 202.77 321.462 190.652 321.462 190.652" stroke="black" stroke-width="1.44133" stroke-miterlimit="1.5" stroke-linecap="round" stroke-linejoin="round"/>
<path d="M147.106 116.837C141.227 114.877 139.237 104.964 142.66 94.6972C146.083 84.4299 153.624 77.6957 159.503 79.6559C165.382 81.6161 167.372 91.5283 163.949 101.796C160.526 112.063 152.985 118.797 147.106 116.837Z" fill="white" stroke="black" stroke-width="1.44133" stroke-miterlimit="1.5" stroke-linecap="round" stroke-linejoin="round"/>
<path d="M111.762 108.907C105.883 106.947 103.893 97.0347 107.316 86.7675C110.74 76.5003 118.28 69.7661 124.159 71.7262C130.038 73.6864 132.029 83.5986 128.605 93.8658C125.182 104.133 117.641 110.867 111.762 108.907Z" fill="white" stroke="black" stroke-width="1.44133" stroke-miterlimit="1.5" stroke-linecap="round" stroke-linejoin="round"/>
<path d="M162.253 96.7451C160.646 96.7451 159.343 94.31 159.343 91.3062C159.343 88.3023 160.646 85.8672 162.253 85.8672C163.86 85.8672 165.163 88.3023 165.163 91.3062C165.163 94.31 163.86 96.7451 162.253 96.7451Z" fill="black" stroke="black" stroke-width="1.44133" stroke-miterlimit="1.5" stroke-linecap="round" stroke-linejoin="round"/>
<path d="M126.909 89.7783C125.302 89.7783 124 87.3432 124 84.3394C124 81.3355 125.302 78.9004 126.909 78.9004C128.517 78.9004 129.819 81.3355 129.819 84.3394C129.819 87.3432 128.517 89.7783 126.909 89.7783Z" fill="black" stroke="black" stroke-width="1.44133" stroke-miterlimit="1.5" stroke-linecap="round" stroke-linejoin="round"/>
<path fill-rule="evenodd" clip-rule="evenodd" d="M137.589 137.567C137.589 137.567 110.661 137.276 102.809 124.61C102.809 124.61 94.738 113.656 92.8234 124.793C90.9089 135.93 108.553 144.92 121.574 147.975C134.595 151.033 141.91 151.464 142.255 145.355C142.677 137.893 137.589 137.567 137.589 137.567Z" fill="black" stroke="black" stroke-width="1.45208" stroke-miterlimit="1.5" stroke-linecap="round" stroke-linejoin="round"/>
<path fill-rule="evenodd" clip-rule="evenodd" d="M117.132 141.639C117.132 141.639 104.157 137.913 83.3749 144.576C67.6835 149.607 67.5176 136.325 71.4554 134.16C75.2191 132.088 84.6939 124.887 117.132 141.639Z" fill="#FF7693" stroke="black" stroke-width="1.44133" stroke-miterlimit="1.5" stroke-linecap="round" stroke-linejoin="round"/>
<path d="M109.202 139.274C109.202 139.274 94.294 134.001 84.7051 136.713" stroke="black" stroke-width="1.44133" stroke-miterlimit="1.5" stroke-linecap="round" stroke-linejoin="round"/>
<path fill-rule="evenodd" clip-rule="evenodd" d="M134.351 137.537C134.351 137.537 134.345 143.02 129.325 142.318C124.305 141.614 126.119 136.504 126.119 136.504L134.351 137.537Z" fill="white" stroke="black" stroke-width="1.44133" stroke-miterlimit="1.5" stroke-linecap="round" stroke-linejoin="round"/>
<path fill-rule="evenodd" clip-rule="evenodd" d="M125.641 136.513C125.641 136.513 125.103 141.969 120.174 140.783C115.247 139.594 117.548 134.685 117.548 134.685L125.641 136.513Z" fill="white" stroke="black" stroke-width="1.44133" stroke-miterlimit="1.5" stroke-linecap="round" stroke-linejoin="round"/>
<path fill-rule="evenodd" clip-rule="evenodd" d="M117.335 134.505C117.335 134.505 116.005 139.823 111.303 137.93C106.602 136.033 109.597 131.513 109.597 131.513L117.335 134.505Z" fill="white" stroke="black" stroke-width="1.44133" stroke-miterlimit="1.5" stroke-linecap="round" stroke-linejoin="round"/>
</g>
</svg>
