<?xml version="1.0" encoding="UTF-8" standalone="no"?>
<!DOCTYPE svg PUBLIC "-//W3C//DTD SVG 1.1//EN" "http://www.w3.org/Graphics/SVG/1.1/DTD/svg11.dtd">
<svg width="100%" height="100%" viewBox="0 0 438 633" version="1.1" xmlns="http://www.w3.org/2000/svg" xmlns:xlink="http://www.w3.org/1999/xlink" xml:space="preserve" xmlns:serif="http://www.serif.com/" style="fill-rule:evenodd;clip-rule:evenodd;">
    <g transform="matrix(1,0,0,1,-4188,-166)">
        <g transform="matrix(3.95957,0,0,1.69453,1216.62,0)">
            <g transform="matrix(-0.393403,0,0,0.919256,1074.74,507.777)">
                <g id="Rectangle-Copy-11" transform="matrix(-1,0,0,1.07507,916.963,-460.454)">
                    <rect x="171.176" y="230.015" width="30" height="128" style="fill:white;stroke:black;stroke-width:1.24px;"/>
                </g>
                <g id="Rectangle-Copy-12" transform="matrix(-1,0,0,1,756.963,-443.185)">
                    <rect x="91.176" y="241.015" width="30" height="128" style="fill:white;stroke:black;stroke-width:1.28px;"/>
                </g>
                <g id="Rectangle-Copy-13" transform="matrix(-1.05348,0,0,1,927.003,-443.185)">
                    <rect x="170.676" y="137.515" width="31" height="109" style="stroke:black;stroke-width:1.25px;stroke-linejoin:round;stroke-miterlimit:2;"/>
                </g>
                <g id="Rectangle-Copy-14" transform="matrix(-1.04279,0,0,1,761.506,-443.185)">
                    <rect x="90.676" y="157.515" width="31" height="110" style="stroke:black;stroke-width:1.26px;stroke-linejoin:round;stroke-miterlimit:2;"/>
                </g>
                <g id="Rectangle-Copy-15" transform="matrix(-1,0,0,1,916.963,-443.185)">
                    <rect x="170.676" y="250.515" width="31" height="7" style="stroke:black;stroke-width:1.28px;stroke-linejoin:round;stroke-miterlimit:2;"/>
                </g>
                <g id="Rectangle-Copy-16" transform="matrix(-1,0,0,1,756.963,-443.185)">
                    <rect x="90.676" y="271.515" width="31" height="7" style="stroke:black;stroke-width:1.28px;stroke-linejoin:round;stroke-miterlimit:2;"/>
                </g>
                <g id="Rectangle-Copy-17" transform="matrix(-1,0,0,1,916.963,-443.185)">
                    <rect x="170.676" y="261.515" width="31" height="4" style="stroke:black;stroke-width:1.28px;stroke-linejoin:round;stroke-miterlimit:2;"/>
                </g>
                <g id="Rectangle-Copy-18" transform="matrix(-1,0,0,1,756.963,-443.185)">
                    <rect x="90.676" y="282.515" width="31" height="4" style="stroke:black;stroke-width:1.28px;stroke-linejoin:round;stroke-miterlimit:2;"/>
                </g>
                <g id="Rectangle-Copy-19" transform="matrix(-1,0,0,1,916.963,-443.185)">
                    <rect x="170.676" y="269.515" width="31" height="2" style="stroke:black;stroke-width:1.28px;stroke-linejoin:round;stroke-miterlimit:2;"/>
                </g>
                <g id="Rectangle-Copy-20" transform="matrix(-1,0,0,1,756.963,-443.185)">
                    <rect x="90.676" y="290.515" width="31" height="2" style="stroke:black;stroke-width:1.28px;stroke-linejoin:round;stroke-miterlimit:2;"/>
                </g>
                <g id="Path-2-Copy-2" transform="matrix(-1,0,0,1,982.232,-422.995)">
                    <path d="M169.123,378.541L269.271,378.541C270.645,357.19 269.325,346.515 265.31,346.515L235.666,346.515C233.071,357.19 225.299,362.528 212.35,362.528C192.928,362.528 196.198,346.515 179.234,346.515C167.925,346.515 164.555,357.19 169.123,378.541Z" style="fill:rgb(254,229,99);stroke:black;stroke-width:1.28px;"/>
                </g>
                <g id="Rectangle-Copy-21" transform="matrix(-1,0,0,1,981.822,-422.995)">
                    <path d="M167.796,375.541L268.742,375.541L268.742,379.541L168.742,379.541L167.796,375.541Z" style="stroke:black;stroke-width:1.28px;stroke-linejoin:round;stroke-miterlimit:2;"/>
                </g>
                <g id="Path-2-Copy-3" transform="matrix(-1,0,0,1,818.059,-443.185)">
                    <path d="M87.623,400.567L187.771,400.567C188.039,379.216 186.165,368.541 182.15,368.541L152.227,368.541C150.925,379.216 143.799,384.554 130.851,384.554C111.428,384.554 114.699,368.541 97.735,368.541C86.426,368.541 83.055,379.216 87.623,400.567Z" style="fill:rgb(254,229,99);stroke:black;stroke-width:1.28px;"/>
                </g>
                <g id="Rectangle-Copy-22" transform="matrix(-1,0,0,1,816.91,-443.185)">
                    <path d="M85.677,396.567L186.622,396.567L186.622,400.567L86.622,400.567L85.677,396.567Z" style="stroke:black;stroke-width:1.28px;stroke-linejoin:round;stroke-miterlimit:2;"/>
                </g>
                <g id="Line-Copy-4" transform="matrix(-1,0,0,1,1041.64,-422.995)">
                    <path d="M237.699,357.508L258.699,366.495" style="fill:none;stroke:black;stroke-width:1.28px;stroke-linecap:square;"/>
                </g>
                <g id="Line-Copy-5" transform="matrix(-1,0,0,1,864.963,-443.185)">
                    <path d="M149.699,382.508L170.699,391.495" style="fill:none;stroke:black;stroke-width:1.28px;stroke-linecap:square;"/>
                </g>
                <g id="Triangle" transform="matrix(-1,7.65714e-16,-7.65714e-16,-1,823.287,-202.671)">
                    <path d="M139,-0L278,218L278.676,240.515L0,240L0,218L139,-0Z" style="stroke:black;stroke-width:1.28px;stroke-linejoin:round;stroke-miterlimit:2;"/>
                </g>
                <g id="Triangle1" serif:id="Triangle" transform="matrix(-1,7.65714e-16,-7.65714e-16,-1,823.963,-224.156)">
                    <path d="M139.676,0.515L277.807,218.569L2.545,218.297L139.676,0.515Z" style="fill:rgb(254,229,99);stroke:black;stroke-width:1.28px;"/>
                </g>
                <g id="Line-Copy-6" transform="matrix(1,0,0,1,544.611,-443.185)">
                    <path d="M21.676,15.515L49.676,58.515" style="fill:none;stroke:black;stroke-width:1.28px;stroke-linecap:square;"/>
                </g>
                <g id="Line-Copy-7" transform="matrix(1,0,0,1,544.611,-443.185)">
                    <path d="M35.699,20.515L64.699,65.515" style="fill:none;stroke:black;stroke-width:1.28px;stroke-linecap:square;"/>
                </g>
                <g id="Path" transform="matrix(1,0,0,1,544.611,-443.185)">
                    <path d="M128.676,90.515L179.988,90.515C178.048,105.848 169.011,113.515 152.877,113.515C136.743,113.515 128.676,105.848 128.676,90.515Z" style="stroke:black;stroke-width:1.28px;stroke-linejoin:round;stroke-miterlimit:2;"/>
                </g>
                <g id="Group" transform="matrix(-1,0,0,1,758.287,-384.671)">
                    <ellipse id="Oval-Copy-2" cx="20.7" cy="11.5" rx="20.3" ry="11.5" style="fill:white;stroke:black;stroke-width:1.28px;"/>
                    <ellipse id="Oval-Copy-3" cx="5.65" cy="11.5" rx="5.25" ry="5.924" style="fill:rgb(42,33,48);stroke:black;stroke-width:1.28px;stroke-linejoin:round;stroke-miterlimit:2;"/>
                    <path id="Oval-Copy-4" d="M5.65,17.424C11.642,17.424 16.5,14.772 16.5,11.5C16.5,8.228 11.642,5.576 5.65,5.576C-0.342,5.576 -0.342,17.424 5.65,17.424Z" style="stroke:black;stroke-width:1.28px;stroke-linejoin:round;stroke-miterlimit:2;"/>
                    <ellipse id="Oval-Copy-5" cx="101.7" cy="11.5" rx="20.3" ry="11.5" style="fill:white;stroke:black;stroke-width:1.28px;"/>
                    <ellipse id="Oval-Copy-6" cx="86.65" cy="11.5" rx="5.25" ry="5.924" style="fill:rgb(42,33,48);stroke:black;stroke-width:1.28px;stroke-linejoin:round;stroke-miterlimit:2;"/>
                    <path id="Oval-Copy-7" d="M86.65,17.424C92.642,17.424 97.5,14.772 97.5,11.5C97.5,8.228 92.642,5.576 86.65,5.576C80.658,5.576 80.658,17.424 86.65,17.424Z" style="stroke:black;stroke-width:1.28px;stroke-linejoin:round;stroke-miterlimit:2;"/>
                </g>
            </g>
        </g>
    </g>
</svg>
