<svg width="351" height="351" viewBox="0 0 351 351" fill="none" xmlns="http://www.w3.org/2000/svg">
<g clip-path="url(#clip0_131_385)">
<path d="M175.285 349.798C271.501 349.798 349.499 271.8 349.499 175.585C349.499 79.3692 271.501 1.37109 175.285 1.37109C79.0695 1.37109 1.07117 79.3692 1.07117 175.585C1.07117 271.8 79.0695 349.798 175.285 349.798Z" fill="#FEE563" stroke="black" stroke-width="1.85573" stroke-miterlimit="1.5" stroke-linecap="round" stroke-linejoin="round"/>
<path d="M146.736 166.74C164.334 166.74 178.6 145.221 178.6 118.675C178.6 92.1304 164.334 70.6113 146.736 70.6113C129.138 70.6113 114.872 92.1304 114.872 118.675C114.872 145.221 129.138 166.74 146.736 166.74Z" fill="#F4F4F4" stroke="black" stroke-width="1.79311" stroke-miterlimit="1.5" stroke-linecap="round" stroke-linejoin="round"/>
<path d="M153.066 198.561C175.64 196.864 192.564 177.188 190.867 154.614C189.17 132.04 169.494 115.115 146.92 116.812C124.346 118.509 107.421 138.185 109.118 160.759C110.815 183.334 130.491 200.258 153.066 198.561Z" fill="black" stroke="black" stroke-width="1.87811" stroke-miterlimit="1.5" stroke-linecap="round" stroke-linejoin="round"/>
<path d="M244.383 162.536C261.981 162.536 276.247 140.404 276.247 113.103C276.247 85.8021 261.981 63.6702 244.383 63.6702C226.786 63.6702 212.52 85.8021 212.52 113.103C212.52 140.404 226.786 162.536 244.383 162.536Z" fill="#F4F4F4" stroke="black" stroke-width="1.77713" stroke-miterlimit="1.5" stroke-linecap="round" stroke-linejoin="round"/>
<path d="M277.921 183.736C300.495 182.039 317.419 162.363 315.722 139.789C314.025 117.215 294.35 100.29 271.775 101.987C249.201 103.684 232.276 123.36 233.974 145.934C235.671 168.509 255.346 185.433 277.921 183.736Z" fill="black" stroke="black" stroke-width="1.87811" stroke-miterlimit="1.5" stroke-linecap="round" stroke-linejoin="round"/>
<path fill-rule="evenodd" clip-rule="evenodd" d="M203.393 158.704C203.393 158.704 240.775 182.946 286.92 180.026C286.92 180.026 295.69 177.574 296.264 189.662C296.775 200.409 267.353 203.097 234.643 203.681" fill="#FEE563"/>
<path d="M203.393 158.704C203.393 158.704 240.775 182.946 286.92 180.026C286.92 180.026 295.69 177.574 296.264 189.662C296.775 200.409 267.353 203.097 234.643 203.681" stroke="black" stroke-width="1.85815" stroke-miterlimit="1.5" stroke-linecap="round" stroke-linejoin="round"/>
<path d="M241.821 146.555L183.941 150.906L184.789 162.192L242.67 157.841L241.821 146.555Z" fill="black" stroke="black" stroke-width="1.85815" stroke-miterlimit="1.5" stroke-linecap="round" stroke-linejoin="round"/>
<path d="M149.504 137.18C155.403 137.18 160.184 126.614 160.184 113.579C160.184 100.545 155.403 89.978 149.504 89.978C143.605 89.978 138.823 100.545 138.823 113.579C138.823 126.614 143.605 137.18 149.504 137.18Z" fill="black" stroke="black" stroke-width="1.8516" stroke-miterlimit="1.5" stroke-linecap="round" stroke-linejoin="round"/>
<path d="M248.105 132.559C253.727 132.559 258.283 122.49 258.283 110.069C258.283 97.6479 253.727 87.5786 248.105 87.5786C242.484 87.5786 237.928 97.6479 237.928 110.069C237.928 122.49 242.484 132.559 248.105 132.559Z" fill="black" stroke="black" stroke-width="1.85052" stroke-miterlimit="1.5" stroke-linecap="round" stroke-linejoin="round"/>
<path d="M141.491 104.483C144.337 104.483 146.644 102.176 146.644 99.3299C146.644 96.484 144.337 94.177 141.491 94.177C138.645 94.177 136.338 96.484 136.338 99.3299C136.338 102.176 138.645 104.483 141.491 104.483Z" fill="#F4F4F4"/>
<path d="M239.025 99.6273C241.737 99.6273 243.935 97.4289 243.935 94.717C243.935 92.0051 241.737 89.8066 239.025 89.8066C236.313 89.8066 234.114 92.0051 234.114 94.717C234.114 97.4289 236.313 99.6273 239.025 99.6273Z" fill="#F4F4F4"/>
<path fill-rule="evenodd" clip-rule="evenodd" d="M265.367 272.748C269.082 278.589 264.441 285.86 257.521 285.657C235.298 285.002 191.279 284.23 141.522 286.209C141.522 286.209 120.375 283.662 118.686 257.664C118.687 234.91 216.366 195.705 265.367 272.748Z" fill="#F4F4F4" stroke="black" stroke-width="2" stroke-miterlimit="1.5" stroke-linecap="round" stroke-linejoin="round"/>
<path d="M141.375 134.967C141.375 134.967 124.552 135.199 124.084 155.291" stroke="#F4F4F4" stroke-width="1.85815" stroke-miterlimit="1.5" stroke-linecap="round" stroke-linejoin="round"/>
<path d="M266.144 118.771C266.144 118.771 249.321 119.003 248.854 139.094" stroke="#F4F4F4" stroke-width="1.85815" stroke-miterlimit="1.5" stroke-linecap="round" stroke-linejoin="round"/>
<path d="M181.485 254.239C161.389 241.451 111.455 235.209 89 233.687L158.649 204C211.171 218.463 310.507 247.388 287.671 247.388C259.127 247.388 206.604 270.224 181.485 254.239Z" fill="#FEE563"/>
<path d="M133 240.5C136.5 237.5 162.325 242.217 183 256C200.127 267.418 249 248.5 252 256" stroke="black" stroke-width="2" stroke-linecap="round"/>
</g>
<defs>
<clipPath id="clip0_131_385">
<rect width="351" height="351" fill="white"/>
</clipPath>
</defs>
</svg>
