<?xml version="1.0" standalone="no"?>
<!DOCTYPE svg PUBLIC "-//W3C//DTD SVG 20010904//EN"
 "http://www.w3.org/TR/2001/REC-SVG-20010904/DTD/svg10.dtd">
<svg version="1.0" xmlns="http://www.w3.org/2000/svg"
 width="260.000000pt" height="260.000000pt" viewBox="0 0 260.000000 260.000000"
 preserveAspectRatio="xMidYMid meet">
<metadata>
Created by potrace 1.14, written by Peter Selinger 2001-2017
</metadata>
<g transform="translate(0.000000,260.000000) scale(0.100000,-0.100000)"
fill="#000000" stroke="none">
<path d="M220 2583 c-84 -30 -146 -84 -188 -165 l-27 -53 0 -1065 0 -1065 25
-50 c30 -62 93 -125 156 -156 l49 -24 1044 -3 c957 -2 1049 -1 1095 14 71 24
121 59 160 113 65 91 61 13 61 1176 l0 1060 -25 50 c-30 62 -94 125 -157 156
l-48 24 -1050 2 c-933 1 -1055 0 -1095 -14z"/>
</g>
</svg>
